<svg width="47" height="47" viewBox="0 0 47 47" fill="none" xmlns="http://www.w3.org/2000/svg">
<g clip-path="url(#clip0_66_455)">
<mask id="mask0_66_455" style="mask-type:luminance" maskUnits="userSpaceOnUse" x="0" y="0" width="47" height="47">
<path d="M47 0H0V46.8795H47V0Z" fill="white"/>
</mask>
<g mask="url(#mask0_66_455)">
<path d="M19.5954 0.249294C18.571 0.383063 17.7033 0.539729 17.6672 0.587935C17.631 0.63614 17.3538 0.722909 17.0285 0.768704C16.7031 0.814499 16.438 0.901268 16.4018 0.949473C16.3656 0.997678 16.1246 1.08204 15.8595 1.13024C15.5944 1.17845 15.3774 1.26281 15.3774 1.32306C15.3774 1.38332 15.2569 1.43152 15.1003 1.43152C14.9195 1.44155 14.7447 1.49981 14.5941 1.60024C14.3976 1.71241 14.1868 1.79754 13.9674 1.85332C13.7505 1.88947 13.5697 1.97383 13.5697 2.02204C13.5697 2.07024 13.3528 2.1775 13.0877 2.26306C12.8226 2.34863 12.6056 2.45588 12.6056 2.51614C12.6056 2.5764 12.4369 2.6487 12.2441 2.69691C12.0513 2.74511 11.8826 2.82947 11.8826 2.88973C11.8826 2.94999 11.75 3.02109 11.5813 3.0705C11.4126 3.11991 11.28 3.19101 11.28 3.25127C11.2797 3.26647 11.2763 3.28146 11.27 3.29529C11.2637 3.30913 11.2546 3.32152 11.2433 3.33169C11.232 3.34186 11.2187 3.3496 11.2043 3.35442C11.1899 3.35925 11.1746 3.36105 11.1595 3.35973C11.051 3.35973 9.21923 4.58776 8.91795 4.86614C8.83359 4.9264 8.59256 5.11922 8.37564 5.28793C7.83333 5.70973 5.51949 8.05973 5.01333 8.7105C4.78436 9.01178 4.50718 9.36127 4.41077 9.49383C4.31436 9.6264 4.14564 9.84332 4.04923 9.98793C3.95817 10.1312 3.85751 10.2681 3.74795 10.3977C3.47833 10.7637 3.25187 11.1596 3.07308 11.5775C3.00077 11.7715 2.89231 11.9161 2.8441 11.9161C2.7959 11.9161 2.71154 12.0728 2.66333 12.2777C2.61513 12.4825 2.53077 12.6392 2.47051 12.6392C2.41026 12.6392 2.36205 12.7115 2.36205 12.8079C2.34879 12.9369 2.28878 13.0565 2.19333 13.1442C2.07419 13.3114 1.98827 13.5 1.94026 13.6997C1.9041 13.9167 1.81974 14.0854 1.75949 14.0854C1.69923 14.0854 1.60282 14.3625 1.51846 14.6879C1.4341 15.0133 1.32564 15.3134 1.27744 15.3508C1.22923 15.3881 1.14487 15.6279 1.09667 15.8931C1.04846 16.1582 0.976154 16.398 0.915897 16.4342C0.855641 16.4703 0.783333 16.7728 0.735128 17.097C0.686923 17.4212 0.614615 17.6996 0.554359 17.6996C0.494103 17.6996 0.421795 18.0611 0.37359 18.507C0.325385 18.9529 0.228974 19.3638 0.144615 19.4108C-0.0482051 19.5313 -0.0482051 27.3177 0.144615 27.4382C0.228974 27.4852 0.325385 27.8829 0.37359 28.3288C0.421795 28.7747 0.506154 29.1495 0.554359 29.1495C0.602564 29.1495 0.686923 29.4134 0.735128 29.752C0.783333 30.0907 0.867692 30.3546 0.915897 30.3546C0.964103 30.3546 1.04846 30.5836 1.09667 30.8596C1.13424 31.1263 1.22 31.3839 1.34974 31.62C1.46389 31.8341 1.54129 32.0659 1.57872 32.3057C1.62692 32.56 1.71128 32.7649 1.75949 32.7649C1.80769 32.7649 1.89205 32.9215 1.94026 33.1264C1.98846 33.3313 2.06077 33.4879 2.12103 33.4879C2.18128 33.4879 2.25359 33.6446 2.3018 33.8495C2.35 34.0543 2.42231 34.211 2.48256 34.211C2.54282 34.211 2.62718 34.3195 2.66333 34.4641C2.75974 34.7654 3.56718 36.1392 3.77205 36.3561C3.85991 36.4435 3.9152 36.5583 3.92872 36.6815C3.93762 36.7316 3.95879 36.7788 3.99033 36.8187C4.02187 36.8587 4.06281 36.8902 4.10949 36.9105C4.2059 36.9454 4.29026 37.031 4.29026 37.1033C4.33122 37.2331 4.40611 37.3496 4.50718 37.4408C4.89234 37.867 5.2544 38.3135 5.5918 38.7784C5.97744 39.2954 7.71282 40.9718 8.54436 41.5984C8.99026 41.9467 9.3518 42.2613 9.3518 42.3083C9.35513 42.337 9.36966 42.3632 9.39222 42.3813C9.41479 42.3993 9.44357 42.4077 9.47231 42.4047C9.54462 42.4047 9.71333 42.5143 9.85795 42.6457C9.9741 42.7628 10.1199 42.8461 10.2797 42.8867C10.3641 42.8867 10.4364 42.9349 10.4364 43.0072C10.4364 43.0796 10.5208 43.1278 10.6172 43.1278C10.7212 43.1391 10.8165 43.1911 10.8823 43.2724C10.9305 43.3579 11.2559 43.5628 11.5813 43.7315C11.8097 43.8377 12.0311 43.9585 12.2441 44.0931C12.3646 44.2136 13.6421 44.8161 13.7867 44.8161C13.8217 44.8134 13.8564 44.8245 13.8835 44.847C13.9105 44.8695 13.9276 44.9017 13.9313 44.9367C13.9313 44.9981 14.0518 45.0572 14.2085 45.0572C14.393 45.067 14.5717 45.1252 14.7267 45.2259C14.9398 45.3482 15.172 45.4338 15.4136 45.479C15.6546 45.5272 15.8595 45.6115 15.8595 45.6597C15.8595 45.7079 16.1005 45.7923 16.4018 45.8284C16.7031 45.8646 16.9441 45.961 16.9441 46.0092C16.9441 46.0574 17.2574 46.1538 17.6431 46.202C18.0287 46.2502 18.3541 46.3226 18.3903 46.3708C18.4987 46.5395 21.9092 46.8637 23.4518 46.8637C24.9582 46.8637 28.2844 46.5395 28.3928 46.3708C28.429 46.3346 28.7905 46.2502 29.2123 46.202C29.6341 46.1538 29.9595 46.0695 29.9595 46.0213C29.9595 45.9731 30.2005 45.8767 30.5018 45.8284C30.8031 45.7802 31.0441 45.7079 31.0441 45.6597C31.0441 45.6115 31.261 45.5272 31.5262 45.479C31.7913 45.4308 32.0082 45.3464 32.0082 45.297C32.0082 45.2476 32.1649 45.1656 32.3456 45.1162C32.7538 44.9936 33.1493 44.8322 33.5267 44.6342C33.9846 44.4052 34.4305 44.2112 34.5149 44.2112C34.5992 44.2112 34.6595 44.1642 34.6595 44.1148C34.6595 44.0653 34.8041 43.9593 34.9969 43.887C35.3431 43.7288 35.6671 43.5262 35.961 43.2844C36.0531 43.1962 36.1717 43.1407 36.2985 43.1265C36.3949 43.1265 36.4672 43.0796 36.4672 43.0193C36.4672 42.959 36.5636 42.8747 36.6962 42.8265C36.8683 42.7627 37.0275 42.6684 37.1662 42.5481C37.2987 42.4408 37.588 42.2119 37.7928 42.0419C37.9977 41.872 38.311 41.6334 38.4556 41.4996C38.6003 41.3659 38.9618 41.067 39.239 40.838C39.8415 40.3439 40.1669 40.0173 40.9864 39.0906C41.3238 38.717 41.7336 38.247 41.9264 38.0542C42.055 37.9303 42.1647 37.7882 42.2518 37.6324C42.2518 37.5468 43.2159 36.138 43.4328 35.9199C43.5127 35.8243 43.563 35.7074 43.5774 35.5837C43.5774 35.4872 43.6256 35.4149 43.698 35.4149C43.7703 35.4149 43.8426 35.2824 43.8908 35.1137C43.939 34.9449 43.9992 34.8112 44.0474 34.8112C44.0956 34.8112 44.2162 34.5942 44.3005 34.3291C44.3849 34.064 44.5054 33.8471 44.5536 33.8471C44.6018 33.8471 44.6741 33.6892 44.7223 33.4855C44.7705 33.2819 44.8428 33.124 44.9031 33.124C44.9633 33.124 45.0356 32.9312 45.0718 32.7022C45.108 32.4732 45.2044 32.2792 45.2526 32.2792C45.3008 32.2792 45.3972 32.0876 45.4333 31.8586C45.4695 31.6296 45.5659 31.4368 45.6141 31.4368C45.6623 31.4368 45.7587 31.1958 45.7949 30.8945C45.831 30.5932 45.9274 30.3281 45.9877 30.2919C46.048 30.2558 46.1564 29.834 46.2287 29.3652C46.301 28.8964 46.4215 28.4131 46.4818 28.3047C46.6505 27.9913 46.9518 24.9062 46.9518 23.4227C46.9518 21.9175 46.6505 18.7721 46.4697 18.3612C46.3631 18.0461 46.2785 17.7239 46.2167 17.3971C46.1444 16.9982 46.0359 16.6125 45.9877 16.5535C45.8973 16.3503 45.8364 16.1352 45.8069 15.9148C45.7587 15.6388 45.6864 15.4098 45.6262 15.4098C45.5659 15.4098 45.4936 15.1917 45.4454 14.9278C45.3972 14.6638 45.3128 14.4457 45.2526 14.4457C45.1923 14.4457 45.1441 14.3734 45.1441 14.2878C45.1441 14.2023 44.9272 13.7106 44.6621 13.1803C44.3969 12.6501 44.18 12.156 44.18 12.0716C44.18 11.9872 44.1318 11.9149 44.0595 11.9149C43.9872 11.9149 43.9149 11.7824 43.8667 11.6137C43.8185 11.4449 43.7462 11.3124 43.698 11.3124C43.6497 11.3124 43.5533 11.1919 43.5051 11.0472C43.4601 10.8942 43.3865 10.7511 43.2882 10.6254C43.2159 10.529 43.1074 10.3965 43.0351 10.3109C42.9628 10.2253 42.758 9.92647 42.5531 9.62519C42.3482 9.32391 42.1433 9.02263 42.071 8.93827C41.9987 8.85391 41.7938 8.60083 41.589 8.35981C41.119 7.80545 39.1305 5.76878 39.0462 5.76878C38.9058 5.67008 38.7765 5.55654 38.6605 5.43014C38.2869 5.0457 37.2264 4.28527 35.9972 3.51519C35.5633 3.25006 35.1415 2.95963 35.0572 2.88852C34.9204 2.79702 34.7698 2.72787 34.6113 2.68365C34.4426 2.6475 34.298 2.56314 34.298 2.50288C34.2964 2.48703 34.2918 2.47163 34.2843 2.45757C34.2768 2.44352 34.2666 2.43109 34.2543 2.421C34.242 2.41092 34.2278 2.40338 34.2125 2.39881C34.1972 2.39425 34.1812 2.39276 34.1654 2.39442C34.081 2.39442 33.6231 2.2016 33.141 1.97263C32.659 1.74365 32.0926 1.51347 31.8877 1.47852C31.6828 1.44358 31.5262 1.35801 31.5262 1.29776C31.5262 1.2375 31.2851 1.16519 30.9838 1.11699C30.6826 1.06878 30.4415 0.996473 30.4415 0.948268C30.4415 0.900063 30.1885 0.815704 29.8751 0.767499C29.5618 0.719294 29.2726 0.646986 29.2364 0.586729C29.2003 0.526473 28.2603 0.381858 27.1274 0.237242C24.6268 -0.0839729 22.0951 -0.0803273 19.5954 0.248088V0.249294ZM25.0787 1.06999C26.9949 1.28691 28.0915 1.44358 28.2121 1.53999C28.2723 1.60024 28.5856 1.6846 28.899 1.72076C29.2123 1.75691 29.5015 1.85332 29.5377 1.90152C29.5738 1.94973 29.851 2.04614 30.1644 2.09434C30.6946 2.16665 31.02 2.28717 32.2131 2.82947C32.3727 2.9101 32.5432 2.96694 32.7192 2.99819C32.7351 2.99653 32.7511 2.99802 32.7663 3.00258C32.7816 3.00714 32.7958 3.01469 32.8081 3.02477C32.8205 3.03486 32.8307 3.04729 32.8382 3.06134C32.8457 3.0754 32.8503 3.0908 32.8518 3.10665C32.8518 3.16691 33.0205 3.25127 33.2133 3.29947C33.4062 3.34768 33.5749 3.41999 33.5749 3.48024C33.5749 3.5405 33.7195 3.61281 33.9003 3.66101C34.1343 3.72541 34.3547 3.83156 34.551 3.97434C34.6885 4.07791 34.8437 4.15551 35.009 4.20332C35.0258 4.20163 35.0428 4.20349 35.0588 4.20879C35.0748 4.21408 35.0896 4.22269 35.1021 4.23406C35.1146 4.24542 35.1246 4.25928 35.1314 4.27475C35.1382 4.29022 35.1416 4.30694 35.1415 4.32383C35.1415 4.38409 35.2259 4.44434 35.3223 4.44434C35.3774 4.4471 35.4305 4.46559 35.4753 4.49764C35.5202 4.52968 35.5549 4.57392 35.5754 4.62511C35.6236 4.72152 35.708 4.80588 35.7923 4.80588C35.9369 4.80588 36.3226 5.06981 36.7203 5.43134C36.8172 5.53155 36.9372 5.60645 37.0697 5.64947C37.0984 5.64674 37.127 5.65527 37.1495 5.67327C37.172 5.69126 37.1866 5.71731 37.1903 5.74588C37.1903 5.79288 37.371 5.9387 37.5759 6.07127C37.9977 6.31229 40.5044 8.8057 40.8056 9.26486C40.9188 9.43696 41.0523 9.59477 41.2033 9.73486C41.3043 9.8189 41.3761 9.93283 41.4082 10.0602C41.4082 10.1446 41.4926 10.229 41.589 10.2772C41.6401 10.2977 41.6842 10.3325 41.7163 10.3773C41.7483 10.4222 41.7668 10.4752 41.7697 10.5302C41.7697 10.6267 41.818 10.711 41.8782 10.711C41.9385 10.711 42.0469 10.8677 42.1313 11.0725C42.2156 11.2774 42.3241 11.4341 42.3844 11.4341C42.4446 11.4341 42.5169 11.5667 42.5651 11.7354C42.6133 11.9041 42.6856 12.0367 42.7338 12.0367C42.7821 12.0367 42.8785 12.1572 42.9267 12.3006C42.957 12.4246 43.0147 12.5403 43.0954 12.6392C43.24 12.7477 44.18 14.7482 44.18 14.9651C44.18 15.0724 44.2282 15.17 44.2885 15.17C44.3487 15.17 44.4331 15.3869 44.4813 15.652C44.5295 15.9172 44.6138 16.1341 44.6621 16.1341C44.7103 16.1341 44.8067 16.3751 44.8549 16.6764C44.9031 16.9777 44.9754 17.2187 45.0236 17.2187C45.0718 17.2187 45.1562 17.5079 45.2044 17.8442C45.2305 18.1042 45.2913 18.3595 45.3851 18.6034C45.5056 18.748 45.6864 20.0737 45.8792 22.038C45.9696 22.9396 45.9696 23.848 45.8792 24.7495C45.6985 26.6308 45.5177 27.8467 45.3972 28.1239C45.3064 28.3856 45.2418 28.6557 45.2044 28.9301C45.1682 29.2447 45.0839 29.5327 45.0356 29.5689C44.9874 29.605 44.891 29.8713 44.8549 30.1714C44.8187 30.4715 44.7223 30.7137 44.6741 30.7137C44.6259 30.7137 44.5295 30.9065 44.4933 31.1355C44.4572 31.3645 44.3608 31.5561 44.3126 31.5561C44.2644 31.5561 44.18 31.714 44.1438 31.9068C44.0474 32.3636 43.5533 33.4855 43.4449 33.4855C43.3967 33.4855 43.3244 33.6542 43.2762 33.8471C43.228 34.0399 43.1556 34.2086 43.0954 34.2086C43.0351 34.2086 42.9508 34.3291 42.9026 34.4725C42.8303 34.7136 42.7459 34.8473 42.4085 35.233C42.3332 35.305 42.279 35.3963 42.2518 35.4969C42.1912 35.6713 42.1016 35.8343 41.9867 35.9789C41.83 36.185 41.6251 36.4742 41.5287 36.6177C41.3637 36.8552 41.1825 37.0811 40.9864 37.2937C40.7936 37.5107 40.5164 37.836 40.3839 38.0168C40.1308 38.3663 39.4679 39.0291 38.6003 39.8124C37.6603 40.6681 37.3831 40.8971 36.9492 41.1983C36.7203 41.3671 36.4551 41.5478 36.3708 41.6201C36.2864 41.6924 36.1538 41.7889 36.0695 41.8612C35.9355 41.9596 35.7945 42.0482 35.6477 42.1263C35.5031 42.2119 35.2621 42.3565 35.1174 42.4276C34.9728 42.4987 34.78 42.6578 34.6836 42.7289C34.5517 42.8413 34.3946 42.9203 34.2256 42.959C34.069 42.9952 33.9364 43.0795 33.9364 43.1265C33.9364 43.1735 33.7797 43.2603 33.5749 43.3073C33.37 43.3543 33.2133 43.4278 33.2133 43.4881C33.2133 43.5483 33.0567 43.6219 32.8518 43.6689C32.6469 43.7159 32.4903 43.8026 32.4903 43.8496C32.4903 43.8966 32.2974 43.9942 32.0685 44.0437C31.8395 44.0931 31.6467 44.1642 31.6467 44.2112C31.6467 44.2582 31.3574 44.3811 31.02 44.4522C30.7544 44.5103 30.4958 44.5967 30.2487 44.7101C30.1764 44.7703 29.8631 44.8547 29.5497 44.8909C29.2364 44.927 28.9954 45.0114 28.9954 45.0716C28.9954 45.1319 28.6338 45.203 28.188 45.2524C27.7421 45.3018 27.3444 45.3729 27.3082 45.4332C27.2721 45.4934 26.3682 45.5898 25.2956 45.6621C23.3072 45.7947 20.0533 45.6621 19.5351 45.4211C19.2337 45.3256 18.9224 45.265 18.6072 45.2403C18.2215 45.1921 17.9082 45.1198 17.9082 45.0596C17.9082 44.9993 17.6069 44.927 17.2454 44.8788C16.8838 44.8306 16.5826 44.7583 16.5826 44.7101C16.5826 44.6619 16.2813 44.5534 15.9197 44.4691C15.5582 44.3847 15.2569 44.2762 15.2569 44.2148C15.2569 44.1533 15.0641 44.0834 14.8351 44.0473C14.6062 44.0111 14.4133 43.9147 14.4133 43.8532C14.4133 43.7918 14.2567 43.7219 14.0518 43.6725C13.8469 43.6231 13.6903 43.552 13.6903 43.4917C13.6903 43.4314 13.5336 43.3603 13.3287 43.3109C13.1238 43.2615 12.9672 43.1904 12.9672 43.1302C12.9672 43.0699 12.7985 42.9988 12.5936 42.9494C12.3887 42.9 12.1959 42.7927 12.1718 42.7084C12.1477 42.624 11.9669 42.5156 11.7862 42.4673C11.6495 42.4372 11.5191 42.3838 11.4005 42.3095C11.28 42.154 10.569 41.6828 10.4364 41.6828C10.4066 41.683 10.3778 41.6721 10.3556 41.6523C10.3333 41.6325 10.3192 41.6052 10.3159 41.5756C10.3159 41.5261 10.111 41.3345 9.85795 41.1779C9.60487 41.0212 9.23128 40.7199 9.01436 40.5271C8.59256 40.1535 6.48359 38.0674 6.27872 37.8035C5.85692 37.2853 5.17 36.3815 5.01333 36.1404C4.91692 35.9958 4.73615 35.7415 4.62769 35.5981C4.52575 35.4794 4.45163 35.3394 4.41077 35.1884C4.41246 35.1716 4.4106 35.1546 4.4053 35.1385C4.40001 35.1225 4.3914 35.1078 4.38003 35.0953C4.36867 35.0828 4.3548 35.0728 4.33934 35.066C4.32387 35.0592 4.30715 35.0557 4.29026 35.0558C4.23 35.0558 4.14564 34.9232 4.09744 34.7545C4.04923 34.5858 3.97692 34.452 3.92872 34.452C3.88051 34.452 3.76 34.2484 3.67564 34.0073C3.6171 33.7818 3.51018 33.5716 3.36231 33.3915C3.26664 33.2809 3.21139 33.1411 3.20564 32.995C3.20564 32.8745 3.15744 32.7661 3.09718 32.7661C3.03692 32.7661 2.95256 32.6082 2.90436 32.4045C2.85615 32.2009 2.78385 32.043 2.72359 32.043C2.66333 32.043 2.59103 31.8743 2.54282 31.6694C2.48405 31.4314 2.39918 31.2006 2.28974 30.9813C2.19409 30.7983 2.13669 30.5978 2.12103 30.392C2.12103 30.2473 2.07282 30.1136 2.00051 30.0907C1.92821 30.0678 1.81974 29.6315 1.73538 29.1133C1.65103 28.5951 1.54256 28.1854 1.50641 28.1854C1.47026 28.1854 1.37385 27.7648 1.33769 27.2454C1.30154 26.726 1.19308 26.2813 1.12077 26.2343C0.94 26.1258 0.94 20.7268 1.12077 20.6172C1.18103 20.5702 1.27744 20.1243 1.32564 19.629C1.37385 19.1337 1.44615 18.7022 1.49436 18.6649C1.54256 18.6275 1.65103 18.2057 1.73538 17.7128C1.81974 17.2199 1.94026 16.7596 1.98846 16.6884C2.08571 16.5035 2.15091 16.3034 2.18128 16.0967C2.22949 15.8557 2.31385 15.652 2.36205 15.652C2.41026 15.652 2.49462 15.4592 2.53077 15.2302C2.56692 15.0013 2.66333 14.8084 2.71154 14.8084C2.75974 14.8084 2.85615 14.6156 2.89231 14.3867C2.92846 14.1577 3.02487 13.9649 3.08513 13.9649C3.14538 13.9649 3.21769 13.7961 3.2659 13.6033C3.3141 13.4105 3.39846 13.2418 3.45872 13.2418C3.51897 13.2418 3.56718 13.1815 3.56718 13.0972C3.56718 12.9164 4.53128 11.2654 4.6759 11.216C4.70777 11.1901 4.73311 11.1571 4.74985 11.1196C4.7666 11.0821 4.7743 11.0412 4.77231 11.0002C4.77712 10.9473 4.79657 10.8966 4.8285 10.8541C4.86042 10.8115 4.90356 10.7787 4.95308 10.7592C5.04949 10.711 5.13385 10.6387 5.13385 10.5784C5.13385 10.4579 5.55564 9.83006 5.97744 9.32511C6.48359 8.72255 8.9059 6.32435 9.32769 6.01101C9.55667 5.84229 9.8941 5.58922 10.0749 5.43134C10.1981 5.32423 10.3361 5.23535 10.4846 5.16742C10.5688 5.14431 10.6469 5.10319 10.7136 5.04691C11.2921 4.55281 11.4608 4.44434 11.6054 4.44434C11.6418 4.44704 11.6778 4.43625 11.7067 4.41401C11.7356 4.39178 11.7553 4.35967 11.7621 4.32383C11.762 4.30694 11.7654 4.29022 11.7722 4.27475C11.779 4.25928 11.789 4.24542 11.8015 4.23406C11.814 4.22269 11.8287 4.21408 11.8448 4.20879C11.8608 4.20349 11.8778 4.20163 11.8946 4.20332C12.0599 4.15551 12.2151 4.07791 12.3526 3.97434C12.5488 3.83156 12.7693 3.72541 13.0033 3.66101C13.1841 3.61281 13.3287 3.52845 13.3287 3.48024C13.3287 3.43204 13.4974 3.34768 13.6903 3.29947C13.8831 3.25127 14.0518 3.16691 14.0518 3.10665C14.0533 3.0908 14.0579 3.0754 14.0654 3.06134C14.0729 3.04729 14.0831 3.03486 14.0955 3.02477C14.1078 3.01469 14.122 3.00714 14.1372 3.00258C14.1525 2.99802 14.1685 2.99653 14.1844 2.99819C14.2928 2.99819 14.7267 2.81742 15.8233 2.32332C16.1207 2.20265 16.4327 2.12161 16.7513 2.08229C17.0526 2.03409 17.3056 1.96178 17.3056 1.91358C17.3056 1.86537 17.5949 1.78101 17.9444 1.73281C18.2938 1.6846 18.6313 1.60024 18.6915 1.53999C18.7518 1.47973 19.1977 1.40742 19.6556 1.37127C20.0228 1.34393 20.3862 1.27932 20.7403 1.17845C21.1862 0.985627 23.6567 0.912114 25.0787 1.06999Z" fill="white"/>
</g>
<path d="M20.6194 1.86519C19.6915 1.94955 18.8479 2.07006 18.7515 2.13031C18.4884 2.23383 18.2129 2.3027 17.932 2.33519C17.5825 2.38339 17.3053 2.4557 17.3053 2.51596C17.3053 2.57621 17.1005 2.63647 16.8353 2.68467C16.5558 2.73146 16.2841 2.81662 16.0279 2.93775C15.836 3.0356 15.6276 3.0969 15.4133 3.11852C15.2566 3.11852 15.1361 3.16672 15.1361 3.23903C15.1304 3.27308 15.1126 3.30394 15.0861 3.32604C15.0596 3.34814 15.026 3.36003 14.9915 3.35955C14.7701 3.41543 14.5559 3.49629 14.3528 3.60057C14.1527 3.70222 13.9427 3.78299 13.7261 3.8416C13.6417 3.8416 13.5694 3.8898 13.5694 3.93801C13.5694 3.98621 13.3766 4.10552 13.1476 4.19108C12.9187 4.27665 12.7259 4.3839 12.7259 4.44416C12.7259 4.50442 12.5692 4.57673 12.3764 4.62493C12.1835 4.67314 11.9907 4.7816 11.9546 4.87801C11.9333 4.92765 11.898 4.97003 11.8531 4.99998C11.8082 5.02994 11.7555 5.04618 11.7015 5.04673C11.6051 5.04673 11.5207 5.09493 11.5207 5.16724C11.5207 5.23955 11.3882 5.31065 11.2315 5.36006C11.1575 5.37205 11.0869 5.39977 11.0246 5.44135C10.9622 5.48293 10.9095 5.5374 10.87 5.60108C10.8487 5.65072 10.8134 5.6931 10.7685 5.72306C10.7236 5.75302 10.6709 5.76926 10.6169 5.7698C10.5205 5.7698 10.4361 5.81801 10.4361 5.89031C10.4361 5.96262 10.3035 6.07108 10.1469 6.15424C9.50816 6.49288 7.84508 8.04749 6.94124 9.14416C6.63995 9.5057 6.35072 9.86724 6.27842 9.93955C6.20611 10.0119 6.07354 10.2047 5.97713 10.3493C5.88072 10.4939 5.69995 10.7229 5.59149 10.8542C5.49599 10.956 5.42219 11.0761 5.37457 11.2073C5.34677 11.3042 5.29252 11.3914 5.2179 11.4592C4.98374 11.7479 4.78545 12.064 4.62739 12.4004C4.54693 12.5653 4.44567 12.7192 4.32611 12.8584C4.23823 12.9506 4.18317 13.0692 4.16944 13.1958C4.16944 13.2922 4.12124 13.3645 4.06098 13.3645C4.00072 13.3645 3.91636 13.5212 3.86816 13.7261C3.81995 13.9309 3.74765 14.0876 3.69944 14.0876C3.65124 14.0876 3.53072 14.3286 3.44636 14.6299C3.36201 14.9312 3.24149 15.2084 3.19329 15.2445C3.15706 15.2782 3.1286 15.3194 3.10987 15.3651C3.09114 15.4109 3.0826 15.4602 3.08483 15.5096C3.05799 15.6999 2.99674 15.8837 2.90406 16.052C2.78923 16.2938 2.70424 16.5488 2.65098 16.8112C2.63438 16.979 2.57641 17.1401 2.48226 17.28C2.42201 17.3173 2.33765 17.6415 2.30149 18.0031C2.26534 18.3646 2.16893 18.6671 2.12072 18.6671C2.07252 18.6671 1.98816 19.125 1.93995 19.6902C1.89175 20.2554 1.80739 20.7146 1.74713 20.7146C1.68688 20.7146 1.63867 21.933 1.63867 23.4261C1.63867 24.9193 1.68688 26.1389 1.74713 26.1389C1.80739 26.1389 1.89175 26.5968 1.93995 27.162C1.98816 27.7272 2.07252 28.1864 2.12072 28.1864C2.16893 28.1864 2.26534 28.4889 2.30149 28.8492C2.33765 29.2095 2.43406 29.5132 2.49431 29.5132C2.55457 29.5132 2.62688 29.7543 2.67508 30.0555C2.72329 30.3568 2.79559 30.5979 2.8438 30.5979C2.89201 30.5979 2.97636 30.8148 3.02457 31.0799C3.07277 31.345 3.14508 31.562 3.20534 31.562C3.26559 31.562 3.36201 31.8162 3.45842 32.1284C3.55483 32.4405 3.68739 32.7803 3.77175 32.8647C3.86726 32.9758 3.92246 33.116 3.92842 33.2624C3.92842 33.3829 3.97662 33.4914 4.04893 33.4914C4.12124 33.4914 4.19354 33.6239 4.24175 33.7926C4.28995 33.9614 4.36226 34.0927 4.41047 34.0927C4.45867 34.0927 4.55508 34.2132 4.60329 34.3579C4.63363 34.4819 4.69127 34.5976 4.77201 34.6965C4.93684 34.9031 5.08208 35.1246 5.20585 35.3581C5.59149 36.0342 5.69995 36.1909 6.00124 36.4801C6.09716 36.5513 6.1721 36.647 6.21816 36.7573C6.21816 37.0465 9.66483 40.4811 9.95406 40.4811C9.98391 40.4851 10.0125 40.4959 10.0375 40.5126C10.0626 40.5293 10.0835 40.5515 10.0987 40.5775C10.1589 40.7342 12.0751 42.0466 12.2317 42.0466C12.2486 42.0449 12.2655 42.0467 12.2816 42.052C12.2976 42.0573 12.3124 42.0659 12.3249 42.0773C12.3374 42.0887 12.3473 42.1025 12.3541 42.118C12.3609 42.1335 12.3644 42.1502 12.3643 42.1671C12.3643 42.2261 12.4366 42.2876 12.533 42.2876C12.6555 42.309 12.7665 42.373 12.8464 42.4684C13.0276 42.6163 13.2365 42.7265 13.461 42.7925C13.7261 42.8661 13.931 42.9625 13.931 43.0107C13.931 43.0589 14.1238 43.1432 14.3528 43.1794C14.5817 43.2155 14.7746 43.3108 14.7746 43.3722C14.7746 43.4337 14.9553 43.5156 15.1723 43.553C15.3486 43.5892 15.519 43.65 15.6784 43.7337C15.8423 43.817 16.0166 43.8778 16.1966 43.9145C16.4015 43.9507 16.5823 44.035 16.5823 44.0832C16.5823 44.1314 16.8233 44.2146 17.1246 44.252C17.4259 44.2893 17.7633 44.3845 17.8717 44.4568C18.8117 44.9871 24.9217 45.192 27.4887 44.781C28.2238 44.6605 28.8987 44.5171 29.0071 44.4568C29.2161 44.3682 29.4344 44.3035 29.6579 44.264C29.923 44.212 30.1816 44.1311 30.4292 44.023C30.5921 43.9299 30.7727 43.872 30.9594 43.8531C31.0679 43.8531 31.1643 43.8061 31.1643 43.7458C31.1643 43.6855 31.333 43.6132 31.5259 43.565C31.7187 43.5168 32.2971 43.2999 32.7792 43.0709C33.2612 42.842 33.7192 42.6491 33.8035 42.6491C33.8204 42.6508 33.8373 42.649 33.8534 42.6437C33.8694 42.6384 33.8842 42.6298 33.8967 42.6184C33.9092 42.607 33.9191 42.5932 33.9259 42.5777C33.9327 42.5622 33.9362 42.5455 33.9361 42.5286C33.9361 42.4684 34.0687 42.384 34.2374 42.3358C34.4061 42.2876 34.5387 42.2153 34.5387 42.155C34.539 42.1398 34.5424 42.1247 34.5486 42.1109C34.5549 42.097 34.564 42.0845 34.5753 42.0742C34.5866 42.064 34.5998 42.0561 34.6143 42.0511C34.6287 42.0462 34.644 42.0442 34.6592 42.0454C34.8882 42.0454 36.961 40.5522 37.6238 39.9002C37.6859 39.8385 37.7596 39.7898 37.8407 39.7568C38.0094 39.7568 40.022 37.6238 40.6246 36.8031C40.8613 36.4734 41.1147 36.156 41.3838 35.8522C41.4536 35.7678 41.5031 35.6684 41.5284 35.5618C41.5788 35.4136 41.6611 35.2783 41.7694 35.1653C42.1671 34.6832 42.1792 34.6579 42.5528 33.8879C42.7576 33.4661 42.9505 33.1286 42.9987 33.1286C43.0469 33.1286 43.1071 32.9599 43.1553 32.7671C43.2035 32.5743 43.2759 32.4055 43.3361 32.4055C43.3964 32.4055 43.4687 32.2127 43.5048 31.9837C43.541 31.7548 43.6374 31.5608 43.6856 31.5608C43.7338 31.5608 43.8302 31.3571 43.8784 31.1161C43.9266 30.875 43.9989 30.634 44.0471 30.5979C44.1556 30.5376 44.481 29.2722 44.6738 28.1876C44.7279 27.8811 44.8044 27.579 44.9028 27.2837C45.1559 26.6812 45.2402 21.9342 45.0233 20.3543C44.8546 19.1262 44.6618 18.138 44.5412 17.9332C44.4292 17.628 44.3445 17.3134 44.2882 16.9932C44.2159 16.5955 44.1074 16.2568 44.0592 16.2568C44.011 16.2568 43.9266 16.0399 43.8784 15.7748C43.8302 15.5096 43.7579 15.2927 43.6976 15.2927C43.6374 15.2927 43.5651 15.0999 43.5289 14.8709C43.4928 14.642 43.3964 14.4491 43.3361 14.4491C43.2759 14.4491 43.2035 14.2804 43.1553 14.0876C43.1071 13.8948 43.0348 13.7261 42.9746 13.7261C42.9143 13.7261 42.842 13.5573 42.7938 13.3645C42.7456 13.1717 42.6733 13.003 42.613 13.003C42.5528 13.003 42.4443 12.8102 42.372 12.5812C42.2997 12.3522 42.1912 12.1594 42.131 12.1594C42.0707 12.1594 41.9864 12.0389 41.9382 11.8943C41.8932 11.7449 41.8195 11.6057 41.7212 11.4845C41.6073 11.3555 41.5026 11.2186 41.4079 11.0748C40.9579 10.4056 40.4711 9.76184 39.9497 9.14657C39.082 8.18247 38.2505 7.33888 37.9251 7.1099C37.4544 6.75728 37.0038 6.37868 36.5753 5.97588C36.4809 5.88776 36.3705 5.81862 36.25 5.77221C36.1015 5.72157 35.9658 5.63934 35.8523 5.53119C35.4534 5.18684 35.0119 4.89522 34.5387 4.66349C34.4075 4.60552 34.2856 4.52835 34.1771 4.43452C34.0807 4.31401 32.3333 3.50537 31.9717 3.42221C31.791 3.37401 31.6464 3.28965 31.6464 3.22939C31.6464 3.16913 31.55 3.12093 31.4415 3.12093C31.2513 3.10109 31.067 3.04374 30.8992 2.95221C30.6425 2.83236 30.3709 2.74725 30.0917 2.69914C29.8146 2.65093 29.5976 2.57862 29.5976 2.51837C29.5976 2.45811 29.2843 2.3858 28.9107 2.3376C28.5371 2.28939 28.1876 2.20503 28.1515 2.15683C28.0671 2.02426 24.3674 1.67478 23.2225 1.68683C22.7164 1.69767 21.5474 1.77119 20.6194 1.8676V1.86519ZM25.4279 3.61503C26.2835 3.67529 27.0428 3.7717 27.1151 3.83196C27.1874 3.89221 27.6935 4.00067 28.2479 4.08503C28.8023 4.16939 29.2361 4.27785 29.2361 4.32606C29.2361 4.37426 29.453 4.45862 29.7182 4.50683C29.9833 4.55503 30.2002 4.62734 30.2002 4.6876C30.2002 4.74785 30.4171 4.80811 30.6823 4.85631C30.9474 4.90452 31.1643 4.97683 31.1643 5.03708C31.1643 5.09734 31.3571 5.1817 31.5861 5.21785C31.8151 5.25401 32.0079 5.35042 32.0079 5.39862C32.0079 5.44683 32.1525 5.54324 32.3453 5.59144C32.5313 5.62898 32.7051 5.71176 32.8515 5.83247C32.9871 5.93894 33.1429 6.01684 33.3094 6.06144C33.4541 6.10965 33.5746 6.20606 33.5746 6.26631C33.5748 6.28152 33.5782 6.2965 33.5846 6.31034C33.5909 6.32417 33.6 6.33656 33.6113 6.34674C33.6226 6.35691 33.6358 6.36465 33.6503 6.36947C33.6647 6.3743 33.6799 6.3761 33.6951 6.37478C33.7915 6.37478 35.3702 7.41119 35.9728 7.88119C36.262 8.09811 38.6843 10.5445 39.0338 10.9663C39.2146 11.1953 39.5882 11.6773 39.8533 12.0389C40.2992 12.6535 40.3233 12.7017 40.0943 12.7379C39.9497 12.762 39.8412 12.8584 39.8412 12.9427C39.825 13.0673 39.7652 13.1821 39.6725 13.2669C39.5645 13.3948 39.4826 13.5426 39.4315 13.702C39.3833 13.8466 39.2869 13.9671 39.2266 13.9671C39.1664 13.9671 39.1182 14.0394 39.1182 14.1358C39.1044 14.2621 39.0494 14.3803 38.9615 14.472C38.8316 14.6369 38.7261 14.8195 38.6482 15.0143C38.5638 15.2325 38.4433 15.4132 38.383 15.4132C38.3228 15.4132 38.2746 15.4855 38.2746 15.582C38.2613 15.7109 38.2013 15.8305 38.1059 15.9182C37.9979 16.0461 37.916 16.1939 37.8648 16.3532C37.8166 16.4979 37.7323 16.6172 37.672 16.6172C37.6117 16.6172 37.5394 16.7509 37.5033 16.9184C37.4671 17.086 37.3707 17.2209 37.3105 17.2209C37.2502 17.2209 37.19 17.2932 37.19 17.3896C37.1753 17.5134 37.1251 17.6302 37.0453 17.7259C36.754 18.093 36.5148 18.4985 36.3343 18.931C36.262 19.125 36.1535 19.2684 36.0933 19.2684C36.033 19.2684 35.9848 19.342 35.9848 19.4384C35.9714 19.5672 35.9114 19.6868 35.8161 19.7746C35.7079 19.9023 35.626 20.0502 35.5751 20.2096C35.5269 20.3531 35.4305 20.4748 35.3702 20.4748C35.31 20.4748 35.2617 20.5471 35.2617 20.6435C35.2478 20.7697 35.1927 20.8878 35.1051 20.9797C34.975 21.1444 34.8694 21.3271 34.7917 21.522C34.7074 21.7402 34.5869 21.9209 34.5387 21.9209C34.4905 21.9209 34.4061 22.0643 34.37 22.2343C34.2976 22.4861 34.2374 22.5355 34.0205 22.4861C33.7058 22.4216 33.388 22.3734 33.0684 22.3415C32.3333 22.2451 32.1405 22.1138 31.4656 21.2702C31.2728 21.0291 31.0076 20.7279 30.8992 20.6182C30.8026 20.5431 30.7277 20.4437 30.6823 20.3302C30.6823 20.282 30.5015 20.065 30.2966 19.8349C30.0917 19.6047 29.7423 19.2323 29.5374 18.9804C29.0553 18.3779 28.6215 17.8717 28.1033 17.28C27.8623 17.0161 27.6694 16.7618 27.6694 16.7015C27.6694 16.6413 27.4525 16.6172 27.1994 16.6172C26.8258 16.6172 26.7053 16.6666 26.6451 16.8582C26.5728 17.0992 26.6692 17.5813 26.8138 17.7018C26.9768 17.9527 27.1218 18.2149 27.2476 18.4863C27.4013 18.7904 27.5743 19.0843 27.7659 19.3661C27.846 19.462 27.8963 19.5793 27.9105 19.7035C27.9105 19.7999 27.9587 19.871 28.0189 19.871C28.0792 19.871 28.1756 19.9915 28.2238 20.1361C28.2566 20.257 28.3096 20.3715 28.3805 20.4748C28.5152 20.6407 28.6286 20.8229 28.7179 21.0171C29.4169 22.3548 29.5494 22.5837 29.682 22.7272C29.8266 22.8971 29.7543 23.3659 29.5856 23.3659C29.5253 23.3659 29.4771 23.4635 29.4771 23.5707C29.4771 23.678 29.3446 24.0528 29.1759 24.3902C29.0071 24.7277 28.8746 25.0543 28.8746 25.1374C28.8745 25.1761 28.863 25.2138 28.8416 25.246C28.8201 25.2781 28.7897 25.3032 28.7541 25.3182C28.6938 25.3314 28.6094 25.5845 28.5612 25.8605C28.501 26.2823 28.5251 26.392 28.7661 26.5836C28.9474 26.7309 29.1204 26.8882 29.2843 27.0548C29.4729 27.2263 29.6743 27.383 29.8869 27.5236L30.2243 27.7537L29.7061 28.2237C29.4169 28.4768 28.8625 28.9709 28.4769 29.3084C28.0912 29.6458 27.5851 30.1146 27.3561 30.3448L26.9343 30.7413L26.9946 26.6089C27.0187 24.3312 27.0789 22.1607 27.1271 21.7763C27.2115 21.0291 27.2717 21.1255 26.1028 19.871C25.4038 19.1118 24.3433 17.9066 23.9697 17.474C23.7889 17.2438 23.4153 16.822 23.1502 16.5461C22.8851 16.2701 22.4874 15.823 22.2705 15.5699C21.6559 14.8589 21.1497 14.3045 20.5351 13.6176C20.2097 13.2669 19.9566 12.9427 19.9566 12.8825C19.9566 12.7246 17.5343 12.7246 17.1366 12.8825C16.9679 12.9427 15.8833 13.0632 14.7143 13.1464C13.5453 13.2295 12.6053 13.3272 12.6053 13.3766C12.6053 13.426 11.9305 13.4971 11.0989 13.5453C10.2674 13.5935 9.59252 13.6779 9.59252 13.7381C9.59252 13.7984 9.4479 13.8466 9.26713 13.8466C9.00201 13.8466 8.83329 13.9791 8.5079 14.4612C8.27893 14.7866 8.00175 15.1602 7.90534 15.2807C7.80893 15.4012 7.64021 15.6302 7.5438 15.7748C7.45274 15.918 7.35208 16.0549 7.24252 16.1845C7.18226 16.2556 6.96534 16.5461 6.77252 16.822C6.5797 17.098 6.37483 17.3402 6.32662 17.3402C6.27842 17.3402 6.21816 17.4246 6.21816 17.521C6.21534 17.5762 6.19684 17.6294 6.16482 17.6745C6.1328 17.7195 6.08859 17.7545 6.03739 17.7753C5.98883 17.7962 5.94658 17.8294 5.91486 17.8717C5.88315 17.914 5.86306 17.9638 5.85662 18.0163C5.85136 18.0689 5.83321 18.1194 5.80378 18.1634C5.77436 18.2073 5.73456 18.2433 5.6879 18.2682C5.54202 18.396 5.42319 18.5517 5.33842 18.7261C5.20154 18.968 5.04431 19.1978 4.86842 19.4131C4.7038 19.5961 4.55085 19.7893 4.41047 19.9915C4.31406 20.1361 4.13329 20.3663 4.02483 20.4977C3.92539 20.6117 3.84039 20.7376 3.77175 20.8725C3.74765 20.9556 3.68739 20.993 3.66329 20.9556C3.56688 20.8725 3.79585 19.125 3.91636 18.9804C3.97662 18.9069 4.06098 18.5586 4.10918 18.2079C4.15739 17.8572 4.2297 17.5825 4.28995 17.5825C4.35021 17.5825 4.41047 17.3643 4.45867 17.1004C4.50688 16.8365 4.57918 16.6184 4.63944 16.6184C4.6997 16.6184 4.78406 16.4014 4.83226 16.1363C4.88047 15.8712 4.96483 15.6543 5.02508 15.6543C5.04094 15.6528 5.05634 15.6481 5.07039 15.6406C5.08445 15.6331 5.09688 15.6229 5.10696 15.6106C5.11705 15.5983 5.12459 15.5841 5.12915 15.5688C5.13372 15.5536 5.13521 15.5375 5.13354 15.5217C5.13354 15.2084 6.38688 12.8704 6.6038 12.7849C6.63444 12.7606 6.65908 12.7296 6.6758 12.6943C6.69252 12.659 6.70087 12.6203 6.70021 12.5812C6.71454 12.4606 6.76494 12.3472 6.84483 12.2558C7.02876 12.0414 7.19787 11.8147 7.35098 11.5773C7.5438 11.3013 7.74867 11.0724 7.79688 11.0724C7.81273 11.0709 7.82813 11.0662 7.84219 11.0587C7.85624 11.0512 7.86867 11.041 7.87876 11.0287C7.88884 11.0164 7.89639 11.0022 7.90095 10.9869C7.90551 10.9717 7.907 10.9556 7.90534 10.9398C7.90534 10.759 10.7133 7.93903 10.8941 7.93903C10.9784 7.93903 11.0387 7.89083 11.0387 7.84142C11.0387 7.73416 13.0392 6.37237 13.2079 6.37237C13.2363 6.37288 13.2639 6.36338 13.2859 6.34552C13.308 6.32766 13.323 6.3026 13.3284 6.27475C13.3284 6.16749 14.5456 5.52878 14.7505 5.52878C14.8348 5.52878 14.8951 5.48057 14.8951 5.40826C14.8951 5.33596 15.0879 5.26365 15.3169 5.21544C15.5459 5.16724 15.7387 5.09493 15.7387 5.03467C15.7387 4.97442 15.9315 4.90211 16.1605 4.8539C16.3894 4.8057 16.5823 4.73339 16.5823 4.67314C16.5823 4.61288 16.7028 4.56467 16.8594 4.56467C17.0657 4.54904 17.2666 4.49164 17.45 4.39596C17.6187 4.29955 18.161 4.16578 18.6551 4.08262C19.1492 3.99947 19.6312 3.8898 19.7638 3.81749C19.8964 3.74519 20.6194 3.67288 21.3907 3.63673C22.162 3.60057 22.8971 3.51621 23.0297 3.46801C23.2038 3.40693 23.3913 3.39443 23.572 3.43185C23.7407 3.46801 24.5723 3.54031 25.4279 3.61262V3.61503ZM41.1789 14.2081C41.2271 14.2081 41.2994 14.3648 41.3476 14.5696C41.3959 14.7745 41.4802 14.9312 41.5405 14.9312C41.5563 14.9327 41.5717 14.9373 41.5858 14.9448C41.5998 14.9523 41.6123 14.9625 41.6223 14.9748C41.6324 14.9872 41.64 15.0014 41.6445 15.0166C41.6491 15.0319 41.6506 15.0479 41.6489 15.0638C41.7071 15.2973 41.7921 15.5233 41.902 15.7374C42.0374 16.0441 42.1423 16.3634 42.2153 16.6907C42.2515 16.9184 42.3238 17.0992 42.3841 17.0992C42.4443 17.0992 42.5166 17.3402 42.5648 17.6415C42.613 17.9428 42.6853 18.1838 42.7335 18.1838C42.7817 18.1838 42.8661 18.4984 42.9143 18.8708C42.9625 19.2431 43.0469 19.63 43.1071 19.7035C43.312 19.9554 43.4566 23.3659 43.3241 25.235C43.2638 26.222 43.1674 27.0656 43.1071 27.1018C43.0469 27.1379 42.9746 27.4766 42.9264 27.849C42.8782 28.2213 42.7938 28.5479 42.7456 28.5479C42.6974 28.5479 42.613 28.8131 42.5648 29.1505C42.5166 29.4879 42.4323 29.7531 42.3841 29.7531C42.3359 29.7531 42.2394 29.9579 42.1912 30.199C42.14 30.4608 42.0592 30.7159 41.9502 30.9594C41.8659 31.1281 41.673 31.5499 41.5164 31.8861C41.3597 32.2224 41.191 32.5261 41.1428 32.5261C41.0946 32.5261 41.0343 32.6948 40.9861 32.8876C40.9379 33.0804 40.8535 33.2491 40.7933 33.2491C40.733 33.2491 40.6607 33.3817 40.6125 33.5492C40.5643 33.7167 40.492 33.8517 40.4438 33.8517C40.3956 33.8517 40.3112 33.9481 40.263 34.0807C40.2028 34.2723 40.0702 34.4531 39.6002 35.0195C39.5436 35.0905 39.5025 35.1726 39.4797 35.2605C39.4417 35.3755 39.3704 35.4766 39.2748 35.5509C39.1079 35.7144 38.9548 35.8914 38.8169 36.08C38.4915 36.5512 36.973 38.0576 36.262 38.6349C36.0184 38.8187 35.7924 39.0248 35.5871 39.2507C35.5547 39.2911 35.5146 39.3247 35.4691 39.3496C35.4236 39.3744 35.3736 39.3899 35.322 39.3953C35.2256 39.3953 35.1412 39.4435 35.1412 39.4917C35.1412 39.5399 34.9966 39.6725 34.8158 39.7689C34.5284 39.9095 34.2609 40.0879 34.0205 40.2991C33.9361 40.3594 33.7071 40.5028 33.5143 40.6125C33.3215 40.7221 32.9359 40.9138 32.6707 41.0584C32.02 41.3958 31.092 41.8055 30.9353 41.8055C30.9185 41.8039 30.9016 41.8057 30.8855 41.811C30.8695 41.8163 30.8547 41.8249 30.8422 41.8363C30.8297 41.8476 30.8197 41.8615 30.813 41.877C30.8062 41.8924 30.8027 41.9092 30.8028 41.9261C30.8028 41.9863 30.6943 42.0466 30.5497 42.0466C30.3323 42.0651 30.12 42.1227 29.923 42.2165C29.3687 42.4696 28.2238 42.7588 27.1874 42.9143C26.7857 42.956 26.3897 43.0412 26.0064 43.1685C25.6448 43.3361 20.9328 43.3361 20.8243 43.1806C20.7761 43.1083 20.3061 42.9998 19.7759 42.9275C18.5948 42.7588 17.1848 42.4214 17.1848 42.2888C17.1848 42.2406 16.9438 42.1562 16.6425 42.1201C16.3412 42.0839 16.1002 41.9875 16.1002 41.9273C16.1002 41.867 15.9074 41.7826 15.6784 41.7344C15.4494 41.6862 15.2566 41.6139 15.2566 41.5537C15.2566 41.4934 15.1843 41.4452 15.112 41.4452C15.0397 41.4452 14.6902 41.3006 14.3528 41.1427L13.7502 40.8427H22.873C30.8148 40.8427 32.02 40.8185 32.1766 40.6619C32.2536 40.575 32.354 40.5123 32.4659 40.4811C32.5013 40.4807 32.5359 40.4703 32.5658 40.4511C32.5956 40.4319 32.6194 40.4047 32.6346 40.3727C32.6707 40.263 33.8879 39.276 33.9843 39.276C34.0325 39.276 34.153 39.1784 35.0328 38.4444C35.2738 38.2396 35.5389 38.0696 35.6112 38.0696C35.627 38.0713 35.6429 38.0699 35.6581 38.0654C35.6733 38.0609 35.6874 38.0535 35.6997 38.0435C35.7121 38.0335 35.7223 38.0212 35.7298 38.0073C35.7374 37.9934 35.7421 37.9781 35.7438 37.9624C35.7438 37.9021 35.9246 37.7322 36.1415 37.6009C36.3915 37.4467 36.6292 37.2734 36.8525 37.0826C37.0212 36.926 37.2984 36.685 37.4671 36.5403C37.7684 36.2861 37.7805 36.2391 37.7082 35.3955C37.672 34.9134 37.5997 34.4543 37.5515 34.3952C37.5033 34.3362 37.4189 33.7553 37.3707 33.1298C37.3225 32.5044 37.2382 31.8644 37.1779 31.7198C37.0662 31.1223 36.9897 30.5187 36.9489 29.9121C36.8766 29.0685 36.7561 28.2479 36.6838 28.1044C36.5151 27.755 36.491 24.5963 36.6476 24.4758C36.72 24.4288 36.8525 24.1516 36.9369 23.8491C36.9949 23.619 37.0799 23.3966 37.19 23.1863C37.2734 23.0226 37.3343 22.8482 37.3707 22.6681C37.4069 22.4644 37.4912 22.2837 37.5515 22.2837C37.6117 22.2837 37.6841 22.0655 37.7323 21.8016C37.7805 21.5377 37.8528 21.3196 37.913 21.3196C37.9733 21.3196 38.0456 21.128 38.0817 20.8978C38.1179 20.6676 38.2143 20.4772 38.2625 20.4772C38.3107 20.4772 38.4071 20.2723 38.4553 20.018C38.5268 19.6911 38.6318 19.3725 38.7687 19.0672C38.873 18.8485 38.9499 18.6178 38.9976 18.3803C38.9976 18.2706 39.0579 18.1862 39.1182 18.1862C39.1784 18.1862 39.2387 18.0898 39.2387 17.9693C39.2607 17.7838 39.3179 17.6042 39.4074 17.4403C39.5166 17.2212 39.6015 16.9909 39.6605 16.7533C39.7087 16.5485 39.781 16.3785 39.8412 16.3785C39.9015 16.3785 39.9738 16.1869 40.01 15.958C40.0461 15.729 40.1305 15.5362 40.1907 15.5362C40.251 15.5362 40.3474 15.2349 40.4317 14.8733C40.5161 14.5118 40.6366 14.1864 40.6969 14.1503C40.7736 14.0539 40.816 13.9348 40.8174 13.8116C40.8294 13.5706 40.8415 13.5839 40.962 13.8719C41.0343 14.0659 41.1307 14.2105 41.1789 14.2105V14.2081ZM18.1489 14.1358C18.1357 14.2647 18.0757 14.3843 17.9802 14.472C17.8722 14.5999 17.7903 14.7477 17.7392 14.9071C17.691 15.0517 17.6066 15.1722 17.5464 15.1722C17.4861 15.1722 17.4138 15.3048 17.3776 15.4735C17.3415 15.6422 17.2571 15.7748 17.1969 15.7748C17.1366 15.7748 17.0523 15.9314 17.0041 16.1363C16.9559 16.3412 16.8835 16.4979 16.8233 16.4979C16.763 16.4979 16.6787 16.6184 16.6305 16.7618C16.5977 16.8823 16.5447 16.9964 16.4738 17.0992C16.323 17.3069 16.1938 17.5294 16.0882 17.7632C15.4976 18.8961 15.3169 19.2094 15.2325 19.2455C15.1723 19.2684 15.1361 19.3661 15.1361 19.4492C15.1218 19.5698 15.0714 19.6832 14.9915 19.7746C14.8469 19.9204 14.4733 20.5832 13.943 21.6184C13.8651 21.7654 13.7765 21.9063 13.6779 22.0402C13.6044 22.1371 13.5511 22.2477 13.5212 22.3656C13.473 22.5223 13.3766 22.644 13.3164 22.644C13.2561 22.644 13.2079 22.7163 13.2079 22.8127C13.1933 22.9364 13.143 23.0532 13.0633 23.149C12.865 23.4348 12.6916 23.7372 12.5451 24.0528C12.3523 24.4746 12.1474 24.812 12.0992 24.812C12.051 24.812 12.0028 24.8855 12.0028 24.982C11.9895 25.1109 11.9295 25.2305 11.8341 25.3182C11.7261 25.4461 11.6442 25.5939 11.593 25.7532C11.5448 25.8966 11.4605 26.0172 11.4002 26.0172C11.34 26.0172 11.2676 26.1509 11.2315 26.3196C11.1953 26.4884 11.111 26.6197 11.0507 26.6197C10.9905 26.6197 10.9061 26.7776 10.8579 26.9704C10.7615 27.4043 10.5084 27.6332 9.9179 27.8249C9.64843 27.9075 9.38639 28.0127 9.13457 28.1394C8.98855 28.2218 8.82964 28.2788 8.66457 28.3081C8.58021 28.3081 8.5079 28.3563 8.5079 28.4286C8.5079 28.5009 8.31508 28.5732 8.08611 28.6226C7.85713 28.6721 7.66431 28.7432 7.66431 28.7914C7.66431 28.8396 7.49559 28.9239 7.30277 28.9721C7.10995 29.0203 6.94124 29.1047 6.94124 29.1529C6.94124 29.2011 6.74842 29.2963 6.51944 29.3457C6.29047 29.3951 6.09765 29.4662 6.09765 29.5144C6.09765 29.5626 5.82047 29.6832 5.49508 29.7675C5.1697 29.8519 4.89252 29.9591 4.89252 30.0194C4.89252 30.0796 4.80816 30.1158 4.71175 30.1158C4.61534 30.1158 4.53098 30.0567 4.53098 29.9953C4.52965 29.9801 4.53146 29.9649 4.53628 29.9505C4.54111 29.936 4.54885 29.9228 4.55902 29.9115C4.56919 29.9002 4.58158 29.8911 4.59542 29.8848C4.60925 29.8784 4.62424 29.875 4.63944 29.8748C4.6997 29.8748 4.78406 29.6566 4.83226 29.3927C4.88047 29.1288 4.95277 28.9107 5.01303 28.9107C5.07329 28.9107 5.13354 28.707 5.18175 28.4419C5.2293 28.1625 5.31443 27.8909 5.43483 27.6344C5.53062 27.4503 5.59189 27.2502 5.61559 27.0439C5.6379 26.8409 5.69928 26.644 5.79636 26.4643C5.90958 26.2259 5.99452 25.9752 6.04944 25.7171C6.08559 25.4893 6.16995 25.2953 6.21816 25.2953C6.26636 25.2953 6.33867 25.0784 6.38688 24.8132C6.43508 24.5481 6.50739 24.3312 6.56765 24.3312C6.6279 24.3312 6.71226 24.0902 6.74842 23.7877C6.78457 23.4852 6.88098 23.2454 6.92918 23.2454C6.97739 23.2454 7.0979 22.9212 7.17021 22.5223C7.24252 22.1234 7.36303 21.7763 7.42329 21.7402C7.48354 21.704 7.55585 21.4618 7.60406 21.1979C7.65226 20.9339 7.73662 20.7158 7.79688 20.7158C7.85713 20.7158 7.90534 20.5953 7.90534 20.4386C7.9257 20.2279 7.98711 20.0232 8.08611 19.8361C8.19933 19.5977 8.28427 19.347 8.33918 19.0889C8.37534 18.8611 8.4597 18.6683 8.5079 18.6683C8.55611 18.6683 8.64047 18.4502 8.68867 18.1862C8.73688 17.9223 8.80918 17.7042 8.86944 17.7042C8.9297 17.7042 9.00201 17.4764 9.03816 17.186C9.08686 16.9049 9.16773 16.6303 9.27918 16.3677C9.38425 16.1315 9.46501 15.8852 9.52021 15.6326C9.62867 15.0168 9.84559 14.8962 10.9302 14.836C11.4484 14.801 11.8823 14.7408 11.8823 14.6926C11.8823 14.6444 12.5692 14.56 13.4248 14.5118C14.2805 14.4636 15.0156 14.3913 15.0759 14.3431C15.1361 14.2949 15.8471 14.2105 16.6425 14.1382C17.4379 14.0659 18.1007 13.9924 18.1248 13.9815C18.1489 13.9707 18.1489 14.0418 18.1489 14.1382V14.1358ZM20.523 15.4964C20.9087 15.9182 21.4148 16.4738 21.6438 16.7377C22.2102 17.3535 23.3551 18.643 23.7046 19.0648C23.8612 19.2455 24.3071 19.7276 24.6928 20.1361C25.0784 20.5447 25.3797 20.9448 25.3797 21.0291C25.3797 21.1135 25.1748 21.2208 24.9338 21.2702C24.7539 21.2947 24.579 21.3475 24.4156 21.4268C24.3071 21.5473 23.5238 21.9089 23.1864 21.9932C22.9935 22.0294 22.8489 22.1138 22.8489 22.1607C22.8489 22.2078 22.7043 22.2945 22.5235 22.3415C22.2336 22.4213 21.9513 22.5265 21.68 22.6561C21.4788 22.7517 21.2689 22.828 21.0533 22.8838C21.0365 22.8821 21.0195 22.884 21.0035 22.8893C20.9874 22.8946 20.9727 22.9032 20.9602 22.9146C20.9477 22.9259 20.9377 22.9398 20.9309 22.9553C20.9241 22.9707 20.9206 22.9874 20.9207 23.0043C20.9207 23.0634 20.7279 23.1478 20.4989 23.1972C20.27 23.2466 20.0771 23.3177 20.0771 23.3779C20.0771 23.4382 20.0048 23.4852 19.9325 23.4852C19.7115 23.5422 19.4974 23.623 19.2938 23.7262C19.0942 23.829 18.8841 23.9098 18.6671 23.9672C18.5828 23.9672 18.5105 24.0166 18.5105 24.0769C18.5105 24.1372 18.2453 24.2456 17.9079 24.33C17.5705 24.4143 17.3053 24.5228 17.3053 24.5831C17.3053 24.6433 17.233 24.6915 17.1607 24.6915C16.9395 24.7478 16.7253 24.8286 16.522 24.9325C16.3224 25.0353 16.1123 25.1161 15.8953 25.1736C15.811 25.1736 15.7387 25.223 15.7387 25.2832C15.7387 25.3435 15.5941 25.4279 15.4133 25.4749C15.0367 25.5903 14.67 25.7358 14.3166 25.9099C14.035 26.0534 13.7404 26.17 13.4369 26.2582C13.2412 26.3065 13.0569 26.3929 12.8946 26.5125C12.521 26.7402 12.4969 26.7402 12.5692 26.5366C12.5994 26.4355 12.6485 26.341 12.7138 26.2582C12.8772 26.0079 13.0222 25.7461 13.1476 25.4749C13.2785 25.2067 13.4233 24.9457 13.5815 24.6927C13.6572 24.5923 13.7106 24.4768 13.7382 24.3541C13.7864 24.2095 13.8828 24.089 13.943 24.089C14.0033 24.089 14.0515 24.0179 14.0515 23.9214C14.065 23.7947 14.1201 23.6761 14.2082 23.584C14.3946 23.3009 14.5636 23.0067 14.7143 22.7031C14.8451 22.4349 14.99 22.1739 15.1482 21.9209C15.2239 21.8205 15.2773 21.705 15.3048 21.5823C15.353 21.4377 15.4374 21.3172 15.4976 21.3172C15.5579 21.3172 15.6302 21.1858 15.6664 21.0171C15.7025 20.8484 15.7989 20.7146 15.8592 20.7146C15.9194 20.7146 15.9797 20.6435 15.9797 20.5471C15.9934 20.4204 16.0485 20.3019 16.1364 20.2096C16.3295 19.9227 16.4988 19.6204 16.6425 19.3058C16.8474 18.884 17.0402 18.5454 17.1005 18.5454C17.1607 18.5454 17.1848 18.4743 17.1848 18.3779C17.198 18.2486 17.258 18.1285 17.3535 18.0404C17.462 17.9129 17.544 17.765 17.5946 17.6054C17.6428 17.4607 17.7392 17.3402 17.7994 17.3402C17.8597 17.3402 17.9079 17.2691 17.9079 17.1727C17.9214 17.046 17.9765 16.9273 18.0646 16.8353C18.2127 16.6553 18.3197 16.4451 18.3779 16.2195C18.4623 15.9784 18.5707 15.7748 18.631 15.7748C18.6912 15.7748 18.7635 15.6422 18.7997 15.4735C18.8358 15.3048 18.9323 15.1722 18.9925 15.1722C19.0528 15.1722 19.113 15.0999 19.113 15.0143C19.1481 14.8575 19.2228 14.7123 19.33 14.5925C19.5228 14.3515 19.5469 14.3515 19.6794 14.5323C19.7638 14.642 20.1494 15.0746 20.523 15.4964ZM7.33893 18.326C7.30738 18.4658 7.25454 18.6 7.18226 18.7237C7.07496 18.9679 6.99415 19.2228 6.94124 19.4842C6.86893 19.8216 6.74842 20.1337 6.70021 20.1699C6.65201 20.206 6.56765 20.4483 6.51944 20.7122C6.47124 20.9761 6.39893 21.1942 6.33867 21.1942C6.27842 21.1942 6.20611 21.4353 6.16995 21.7365C6.1338 22.0378 6.03739 22.2789 5.97713 22.2789C5.91688 22.2789 5.84457 22.4958 5.79636 22.7609C5.74816 23.026 5.67585 23.243 5.61559 23.243C5.55534 23.243 5.48303 23.4731 5.44688 23.7624C5.39843 24.0531 5.31339 24.3366 5.1938 24.606C5.08094 24.844 4.99602 25.0943 4.94072 25.3519C4.90457 25.5821 4.82021 25.7749 4.77201 25.7749C4.7238 25.7749 4.63944 26.016 4.60329 26.3172C4.56713 26.6185 4.47072 26.8595 4.41047 26.8595C4.35021 26.8595 4.2779 27.0765 4.2297 27.3416C4.18149 27.6067 4.08508 27.8236 3.98867 27.8236C3.8079 27.8236 3.56688 26.1365 3.56688 24.8349C3.56688 24.342 3.51867 23.9672 3.44636 23.9672C3.37406 23.9672 3.32585 23.86 3.32585 23.7262C3.32585 23.5924 3.38611 23.4852 3.44636 23.4852C3.50662 23.4852 3.56688 23.4141 3.56688 23.3285C3.62197 23.153 3.71683 22.9926 3.84406 22.8597C3.98867 22.691 4.19354 22.4247 4.28995 22.2813C4.38636 22.1379 4.56713 21.8956 4.67559 21.7619C4.94716 21.4261 5.2006 21.0761 5.43483 20.7134C5.6397 20.4121 5.85662 20.1108 5.91688 20.0397C6.02669 19.9099 6.12736 19.7726 6.21816 19.6288C6.37483 19.3878 6.61585 19.0865 6.91713 18.7141C7.01681 18.5958 7.10179 18.4659 7.17021 18.3272C7.35098 17.991 7.42329 17.991 7.33893 18.3272V18.326ZM36.6959 21.1231C36.6235 21.3843 36.5266 21.6381 36.4066 21.8812C36.3139 22.0495 36.2527 22.2332 36.2259 22.4235C36.2259 22.544 36.1776 22.6416 36.1174 22.6416C36.0571 22.6416 35.9848 22.7621 35.9607 22.9055C35.9366 23.0863 35.8402 23.1827 35.6835 23.1827C35.3943 23.1827 35.31 22.8585 35.5389 22.6175C35.6552 22.4935 35.7417 22.3448 35.792 22.1824C35.8402 22.0378 35.9366 21.9185 35.9969 21.9185C36.0571 21.9185 36.1053 21.8462 36.1053 21.7498C36.1183 21.6204 36.1784 21.5004 36.2741 21.4124C36.3823 21.2846 36.4642 21.1368 36.5151 20.9773C36.6597 20.5447 36.8164 20.676 36.6959 21.1231ZM25.8617 25.4724C25.8617 27.5212 25.8135 28.6672 25.7412 28.6672C25.6689 28.6672 25.6207 29.2457 25.6207 30.1616V31.6427L25.2471 31.7283C25.028 31.7671 24.8066 31.7912 24.5843 31.8006C24.4276 31.8006 24.2951 31.8488 24.2951 31.909C24.2951 31.9693 23.9576 32.0536 23.5479 32.1006C23.1382 32.1476 22.7525 32.2453 22.7164 32.3055C22.6079 32.4754 21.1738 32.4863 21.0653 32.3188C20.9498 32.2054 20.8029 32.1294 20.6435 32.1006C20.4628 32.0536 20.3182 31.9693 20.3182 31.9199C20.3182 31.8705 20.0771 31.7632 19.7759 31.6789C19.4746 31.5945 19.2335 31.486 19.2335 31.4258C19.2335 31.3655 19.0769 31.3053 18.872 31.2571C18.6671 31.2089 18.5105 31.1245 18.5105 31.0642C18.5105 31.004 18.3779 30.9317 18.2092 30.8835C18.0405 30.8353 17.9079 30.763 17.9079 30.7148C17.9079 30.6665 17.7512 30.5822 17.5464 30.534C17.3415 30.4858 17.1848 30.4014 17.1848 30.3412C17.1848 30.2809 17.1125 30.2327 17.0402 30.2327C16.9679 30.2327 16.6184 30.0881 16.281 29.9302C16.0451 29.7997 15.7942 29.6985 15.5338 29.6289C15.4494 29.6289 15.3771 29.5819 15.3771 29.5217C15.3771 29.4614 15.2205 29.3771 15.0156 29.3289C14.8107 29.2806 14.6541 29.1963 14.6541 29.136C14.6541 29.0758 14.5215 29.0035 14.3528 28.9553C14.1841 28.9071 14.0515 28.8347 14.0515 28.7865C14.0515 28.7383 13.8828 28.654 13.69 28.6046C13.4971 28.5552 13.3284 28.4841 13.3284 28.4238C13.3284 28.3635 13.1717 28.3033 12.9669 28.2563C12.5571 28.1828 12.4728 27.943 12.8464 27.943C12.9789 27.943 13.0874 27.8948 13.0874 27.8345C13.0874 27.7742 13.2441 27.6899 13.4489 27.6405C13.6538 27.5911 13.8105 27.52 13.8105 27.4597C13.8105 27.3994 14.0033 27.3283 14.2323 27.2922C14.4612 27.256 14.6541 27.1717 14.6541 27.1223C14.6541 27.0729 15.0156 26.9065 15.4735 26.7499C15.9315 26.5932 16.3533 26.3751 16.4376 26.2919C16.5376 26.2012 16.6647 26.1461 16.7992 26.1353C17.0379 26.086 17.2689 26.0049 17.4861 25.8942C17.6897 25.7911 17.9038 25.7103 18.1248 25.6532C18.1971 25.6532 18.2694 25.6062 18.2694 25.546C18.2694 25.4857 18.4623 25.4013 18.6912 25.3652C18.9202 25.329 19.113 25.2326 19.113 25.1712C19.1129 25.1543 19.1164 25.1375 19.1232 25.1221C19.13 25.1066 19.14 25.0927 19.1525 25.0814C19.165 25.07 19.1797 25.0614 19.1958 25.0561C19.2118 25.0508 19.2288 25.049 19.2456 25.0506C19.3782 25.0506 20.3182 24.6518 20.8002 24.3999C21.0218 24.2868 21.2566 24.2018 21.4992 24.1468C21.7041 24.1094 21.8848 24.0142 21.8848 23.9648C21.8848 23.9154 22.0776 23.8214 22.3066 23.7732C22.5356 23.725 22.7284 23.6527 22.7284 23.6033C22.7284 23.5539 22.8971 23.4719 23.09 23.4225C23.2828 23.3731 23.4515 23.2912 23.4515 23.2418C23.4515 23.1923 23.6443 23.0983 23.8733 23.0501C24.1023 23.0019 24.2951 22.9296 24.2951 22.8802C24.2951 22.8308 24.5482 22.7235 24.8735 22.6392C25.1109 22.5797 25.3412 22.4949 25.5605 22.3861C25.6158 22.3295 25.6874 22.2916 25.7653 22.2776C25.8135 22.2776 25.8617 23.7118 25.8617 25.47V25.4724ZM33.3817 23.6045C33.4964 23.6893 33.6369 23.7319 33.7794 23.725C34.0325 23.725 34.0566 23.7853 34.0566 24.2565C34.0566 24.5578 34.1169 24.8337 34.1771 24.8711C34.4182 25.0145 34.2976 25.4134 33.9964 25.4857C33.8276 25.5219 33.6951 25.5942 33.6951 25.6424C33.6951 25.6906 33.5505 25.787 33.3697 25.8713C33.1889 25.9557 32.731 26.1726 32.3694 26.3763C31.6102 26.7752 31.55 26.7378 31.5379 25.8111C31.531 25.5459 31.4905 25.2827 31.4174 25.0278C31.331 24.703 31.2666 24.3729 31.2246 24.0395L31.1402 23.3273L32.2007 23.4129C32.7912 23.4478 33.3215 23.5442 33.3817 23.6045ZM30.3328 25.8231C30.5256 26.028 30.4533 26.2558 30.2364 26.1726C29.8989 26.0521 29.8628 25.9075 30.0074 25.4254L30.14 24.9904L30.1761 25.3519C30.1902 25.5192 30.2439 25.6807 30.3328 25.8231ZM35.2617 26.8595C35.2617 27.1837 35.31 27.4621 35.3702 27.4621C35.4305 27.4621 35.5148 28.0177 35.563 28.6913C35.6112 29.365 35.6956 30.0061 35.7559 30.1134C35.8161 30.2206 35.9125 30.8136 35.9848 31.439C36.0571 32.0645 36.1294 32.8237 36.1656 33.1262C36.2017 33.4287 36.1897 33.5842 36.1415 33.4878C36.1014 33.3937 36.0442 33.3079 35.9728 33.2347C35.8764 33.1744 35.1653 32.2453 34.7797 31.6801C34.6892 31.5364 34.5885 31.3995 34.4784 31.2703C34.2735 31.0293 33.8156 30.3665 33.8156 30.3062C33.7129 30.1403 33.5916 29.9867 33.4541 29.8483C33.2729 29.6672 33.1259 29.4549 33.0202 29.2216C32.9382 29.0385 32.8192 28.8744 32.6707 28.7395C32.032 28.137 32.0561 27.8116 32.7671 27.6417C32.9479 27.5947 33.0925 27.5212 33.0925 27.4742C33.0925 27.4272 33.2371 27.3295 33.43 27.2572C33.7915 27.0885 34.2012 26.8475 34.2976 26.7149C34.4188 26.6371 34.5538 26.5835 34.6953 26.5571C34.8761 26.5101 35.0207 26.4257 35.0207 26.3654C35.0234 26.3354 35.0373 26.3075 35.0596 26.2872C35.082 26.2669 35.1111 26.2557 35.1412 26.2558C35.2135 26.2558 35.2617 26.5209 35.2617 26.8583V26.8595ZM11.6653 29.0517C11.9546 29.1975 12.2076 29.3662 12.2197 29.4132C12.2472 29.4467 12.2824 29.473 12.3223 29.49C12.3621 29.507 12.4055 29.5141 12.4487 29.5108C12.6415 29.5108 14.6782 30.4629 14.7746 30.6075C14.8918 30.6946 15.0282 30.7524 15.1723 30.7762C15.353 30.8244 15.4976 30.9088 15.4976 30.957C15.4976 31.0052 15.6664 31.0895 15.8592 31.1378C16.052 31.186 16.2207 31.2703 16.2207 31.3306C16.2207 31.3908 16.281 31.439 16.3653 31.439C16.522 31.439 18.5466 32.4152 18.631 32.5357C18.7457 32.6194 18.8773 32.677 19.0166 32.7044C19.6433 32.8611 19.5107 33.0889 18.7153 33.2347C16.6064 33.5962 15.6784 33.789 15.6182 33.8613C15.582 33.9083 15.2205 33.9819 14.7987 34.0301C14.3769 34.0783 14.0274 34.1626 13.9912 34.2108C13.9551 34.259 13.6056 34.3434 13.2079 34.3916C12.8102 34.4398 12.4607 34.5121 12.4246 34.5724C12.3884 34.6326 12.051 34.7049 11.6774 34.7531C11.3038 34.8013 10.9302 34.8736 10.8579 34.9219C10.7253 35.0171 9.18277 35.2954 8.76098 35.2954C8.61636 35.2954 8.09816 34.8857 7.49559 34.294C6.94124 33.7517 6.32662 33.1744 6.12175 33.0045C5.77226 32.7044 5.13354 31.6427 5.13354 31.3667C5.13354 31.2101 5.41072 31.0775 5.74816 31.0775C5.86867 31.0775 5.97713 31.0293 5.97713 30.969C5.97713 30.9088 6.14585 30.8244 6.33867 30.7762C6.53149 30.728 6.70021 30.6436 6.70021 30.5954C6.70021 30.5472 6.89303 30.4508 7.122 30.4026C7.35098 30.3544 7.5438 30.2821 7.5438 30.2339C7.5438 30.1857 7.68842 30.1013 7.86919 30.0531C8.15894 29.9734 8.4412 29.8685 8.71278 29.7398C8.914 29.644 9.12382 29.5673 9.33944 29.5108C9.35625 29.5125 9.37323 29.5107 9.38927 29.5054C9.40531 29.5001 9.42006 29.4915 9.43256 29.4801C9.44506 29.4687 9.45503 29.4549 9.46183 29.4394C9.46862 29.4239 9.47209 29.4072 9.47201 29.3903C9.47201 29.3313 9.66483 29.2469 9.8938 29.1987C10.1228 29.1505 10.3156 29.0782 10.3156 29.0288C10.3156 28.9215 10.5928 28.8251 10.9423 28.801C11.196 28.8427 11.4406 28.9279 11.6653 29.0529V29.0517ZM31.333 28.9806C31.3692 29.0878 31.4053 30.0893 31.4053 31.2101C31.4053 32.3308 31.4535 33.2467 31.5017 33.2467C31.6102 33.2467 31.8151 39.2603 31.7187 39.3688C31.6343 39.4411 31.1764 38.8988 31.1643 38.718C31.1175 38.5643 31.0349 38.4239 30.9233 38.3083C30.8078 38.1862 30.7249 38.037 30.6823 37.8744C30.6852 37.8378 30.679 37.8011 30.6643 37.7674C30.6495 37.7338 30.6268 37.7043 30.5979 37.6816C30.4533 37.6213 29.9592 36.885 29.9592 36.7416C29.9592 36.6813 29.923 36.6211 29.8748 36.6211C29.8266 36.6211 29.6217 36.309 29.4169 35.9354C29.0312 35.199 29.0071 35.1641 28.6335 34.7061C28.514 34.5775 28.4309 34.4195 28.3925 34.2482C28.3925 34.1638 28.3564 34.0903 28.3082 34.0903C28.26 34.0903 28.0551 33.8023 27.8623 33.4516C27.7063 33.1798 27.5332 32.9182 27.3441 32.6683C27.0789 32.3923 27.1753 32.1151 27.6815 31.6813C27.9587 31.4523 28.3925 31.0666 28.6456 30.8377C28.8987 30.6087 29.4048 30.1387 29.7905 29.8133C30.0973 29.5551 30.3909 29.2816 30.6702 28.9938C30.8992 28.742 31.2366 28.7287 31.333 28.983V28.9806ZM33.0925 31.439C33.1889 31.5824 33.3576 31.8006 33.4541 31.9211C33.5505 32.0416 33.7192 32.2597 33.8156 32.4031C33.912 32.5465 34.2012 32.9454 34.4543 33.2829C34.7074 33.6203 34.9002 33.9698 34.9002 34.053C34.8975 34.0895 34.9082 34.1257 34.9304 34.1548C34.9527 34.1839 34.9848 34.2038 35.0207 34.2108C35.093 34.2108 35.1894 34.3072 35.2256 34.4145C35.3079 34.5845 35.4179 34.7396 35.551 34.8736C35.7413 35.0631 35.9146 35.2687 36.0692 35.4883C36.3223 35.8606 36.3223 35.8606 36.0933 36.0547C36.0081 36.1427 35.9055 36.2121 35.792 36.2583C35.6684 36.3173 35.5546 36.3949 35.4546 36.4885C34.7676 37.1152 34.3097 37.4647 34.1892 37.4647C34.1733 37.463 34.1573 37.4645 34.1421 37.4691C34.1268 37.4736 34.1126 37.4812 34.1003 37.4913C34.088 37.5013 34.0777 37.5138 34.0703 37.5278C34.0628 37.5419 34.0581 37.5573 34.0566 37.5731C34.0566 37.6683 33.1648 38.3083 33.0323 38.3083C32.9961 38.3083 32.972 37.7419 32.972 37.0549C32.972 36.368 32.9238 35.7775 32.8635 35.7534C32.8033 35.7293 32.731 34.6085 32.7069 33.2588C32.6587 31.4017 32.6707 30.8353 32.7792 30.9799C32.8515 31.0895 32.9961 31.2944 33.0925 31.439ZM26.1148 33.0286C26.2307 33.1395 26.3104 33.2827 26.3438 33.4395C26.3403 33.4773 26.3475 33.5153 26.3645 33.5492C26.3816 33.583 26.4078 33.6115 26.4402 33.6312C26.5728 33.6914 27.0669 34.4278 27.0669 34.5724C27.0667 34.6023 27.0778 34.6313 27.0978 34.6536C27.1179 34.6759 27.1455 34.6899 27.1753 34.6929C27.2356 34.6929 27.3561 34.8736 27.4405 35.0773C27.51 35.2573 27.5947 35.431 27.6935 35.5967C27.7538 35.657 27.8984 35.8498 28.031 36.0065C28.1393 36.1194 28.2216 36.2548 28.272 36.403C28.2915 36.496 28.3328 36.5832 28.3925 36.6572C28.6456 36.9453 29.3446 38.066 29.4169 38.3083C29.453 38.4408 29.5374 38.5493 29.5976 38.5493C29.6579 38.5493 29.7423 38.6698 29.7905 38.8132C29.8628 39.0675 29.9471 39.188 30.2966 39.5737C30.4412 39.7303 30.2484 39.7544 28.8264 39.7544C27.1271 39.7544 27.103 39.7424 26.7053 39.1519C26.5929 38.983 26.4637 38.826 26.3197 38.6831C26.2093 38.6002 26.1323 38.4805 26.1028 38.3456C26.1055 38.3093 26.0947 38.2732 26.0724 38.2443C26.0502 38.2154 26.0181 38.1957 25.9823 38.189C25.91 38.189 25.7894 38.0443 25.7051 37.8636C25.5902 37.6254 25.4399 37.4059 25.2592 37.2128C25.0833 37.0332 24.9221 36.8397 24.7771 36.6343C24.6656 36.4632 24.5449 36.2983 24.4156 36.1402C24.3192 36.0197 24.1505 35.8016 24.0541 35.6582C23.9576 35.5148 23.7769 35.2725 23.6684 35.1279C23.1502 34.5013 22.6079 33.7288 22.6079 33.6324C22.6079 33.5613 22.9333 33.4769 23.331 33.4287C23.7287 33.3805 24.0782 33.2961 24.1143 33.2479C24.1505 33.1997 24.5241 33.1033 24.9579 33.0672C25.3917 33.031 25.7412 32.9346 25.7412 32.8743C25.7412 32.6936 25.8859 32.7538 26.1148 33.0298V33.0286ZM21.6438 34.535C21.6411 34.5715 21.6518 34.6078 21.674 34.6369C21.6962 34.666 21.7284 34.6859 21.7643 34.6929C21.8366 34.6929 21.9571 34.8363 22.0415 35.0171C22.1563 35.2557 22.3067 35.4755 22.4874 35.669C22.6636 35.8484 22.8248 36.0419 22.9694 36.2475C23.0884 36.4299 23.2214 36.6027 23.3671 36.7645C23.4506 36.863 23.5196 36.973 23.572 37.0911C23.572 37.1393 23.7166 37.3321 23.9094 37.537C24.1023 37.7419 24.3794 38.1154 24.5723 38.3806C24.7437 38.6454 24.9372 38.8954 25.1507 39.1278C25.3917 39.3929 25.3917 39.3929 25.1507 39.3929C25.0957 39.3972 25.0404 39.3898 24.9884 39.3711C24.9365 39.3524 24.8891 39.3228 24.8494 39.2844C24.8133 39.2242 24.3192 39.1145 23.7528 39.0313C23.1864 38.9482 22.7043 38.8385 22.6682 38.7903C22.632 38.7421 22.2825 38.659 21.8848 38.6095C21.4871 38.5601 21.1617 38.489 21.1617 38.4288C21.1617 38.3685 20.8123 38.2974 20.3784 38.248C19.9446 38.1986 19.5951 38.1275 19.5951 38.0672C19.5951 38.007 19.2697 37.9359 18.872 37.8865C18.4743 37.8371 18.1489 37.766 18.1489 37.7057C18.1489 37.6454 17.8115 37.5743 17.4017 37.5382C16.992 37.502 16.5943 37.4056 16.522 37.3442C16.4497 37.2827 15.9676 37.1875 15.4374 37.1031C14.9071 37.0188 14.4251 36.9103 14.3528 36.8621C14.2805 36.8139 13.9671 36.7295 13.6297 36.6813C13.3818 36.6531 13.1387 36.5923 12.9066 36.5006C12.8464 36.4391 12.4728 36.368 12.0871 36.3198C11.5328 36.2475 11.4243 36.1993 11.5207 36.0667C11.593 35.9812 11.9666 35.8739 12.3402 35.8257C12.7138 35.7775 13.0874 35.7052 13.1476 35.6449C13.2079 35.5847 13.7743 35.4762 14.3889 35.4039C15.0035 35.3316 15.4976 35.2111 15.4976 35.1629C15.4976 35.1147 15.823 35.0424 16.2207 34.993C16.6184 34.9435 16.9438 34.8724 16.9438 34.8122C16.9438 34.7519 17.2812 34.6808 17.691 34.6447C17.9889 34.6159 18.2835 34.559 18.5707 34.4748C18.631 34.4278 19.0407 34.3193 19.4746 34.2337C19.9084 34.1482 20.4507 34.0421 20.6797 33.9927C21.0171 33.9083 21.1497 33.9457 21.3666 34.1385C21.5233 34.2831 21.6438 34.4639 21.6438 34.535ZM9.23098 36.9814C9.23098 37.1393 9.09842 37.1393 8.86944 36.9814C8.72483 36.885 8.73688 36.8609 8.96585 36.8609C9.11047 36.8609 9.23098 36.9091 9.23098 36.9814ZM12.1715 37.5731C12.2438 37.6334 12.6174 37.7178 12.991 37.7539C13.3646 37.7901 13.7141 37.8853 13.7502 37.9467C13.7864 38.0082 14.0997 38.0793 14.4733 38.1275C14.8469 38.1757 15.1602 38.248 15.1964 38.2962C15.2325 38.3444 15.582 38.4276 15.9676 38.477C16.3533 38.5264 16.7269 38.6083 16.763 38.6698C16.7992 38.7313 17.1487 38.8132 17.5464 38.8626C17.9441 38.912 18.2694 38.9831 18.2694 39.0313C18.2694 39.0795 18.7394 39.188 19.33 39.2724C19.9205 39.3567 20.4387 39.4652 20.4989 39.5134C20.6484 39.5956 20.8119 39.6491 20.981 39.6713C21.1859 39.6942 19.2094 39.7315 16.6064 39.7436C12.4969 39.7556 11.8702 39.7315 11.81 39.5749C11.7617 39.4772 11.6774 39.3941 11.6171 39.3941C11.5569 39.3941 11.3159 39.2495 11.0989 39.0554C10.882 38.8614 10.5446 38.5987 10.3397 38.4288C9.88175 38.0672 9.85765 37.8503 10.2433 37.7551C10.3181 37.7411 10.3891 37.7113 10.4514 37.6677C10.5138 37.624 10.5661 37.5676 10.6048 37.502C10.6651 37.3442 10.8097 37.3333 11.3641 37.3936C11.7376 37.4418 12.0992 37.5141 12.1715 37.5743V37.5731Z" fill="white"/>
</g>
<defs>
<clipPath id="clip0_66_455">
<rect width="47" height="46.8795" fill="white"/>
</clipPath>
</defs>
</svg>
