<svg width="124" height="31" viewBox="0 0 124 31" fill="none" xmlns="http://www.w3.org/2000/svg">
<g clip-path="url(#clip0_66_703)">
<mask id="mask0_66_703" style="mask-type:luminance" maskUnits="userSpaceOnUse" x="0" y="0" width="124" height="31">
<path d="M123.999 0H0.0078125V30.3261H123.999V0Z" fill="white"/>
</mask>
<g mask="url(#mask0_66_703)">
<path d="M19.3719 0.608195C16.4406 0.93643 13.9592 1.22185 13.8648 1.24326C13.7467 1.28142 13.6413 1.35049 13.5601 1.44305C13.1248 1.94968 5.79649 11.8181 5.76021 11.9394C5.71668 12.1178 7.05898 20.181 7.15331 20.338C7.18959 20.3951 7.69023 20.8874 8.27069 21.4369C11.3544 24.3696 11.913 24.9047 11.8913 24.9261C11.8695 24.9476 9.26472 25.9016 6.09397 27.074C1.87841 28.6295 0.282154 29.2432 0.158807 29.3716C0.055585 29.4789 -0.00132946 29.6214 2.35831e-05 29.7691C0.00137662 29.9168 0.0608919 30.0582 0.166063 30.1636L0.332944 30.3206H19.4445C34.7685 30.3206 38.5778 30.3064 38.6793 30.235C38.7519 30.1851 40.2103 29.079 41.9226 27.7732C43.8672 26.289 45.0571 25.34 45.0789 25.2472C45.099 25.0736 45.0917 24.8978 45.0571 24.7264C45.0208 24.5266 44.658 21.9506 44.2517 19.0036L43.5189 13.6448L46.0657 7.20144C47.466 3.66221 48.6124 0.686686 48.6124 0.601059C48.6124 0.337044 48.5398 0.208604 48.3149 0.101571C48.0319 -0.0482759 47.8506 -0.0340047 47.6401 0.15152C47.5386 0.244282 46.0657 2.62756 44.3606 5.45323C42.6555 8.27891 41.2624 10.598 41.2551 10.6051C41.2479 10.6122 40.7327 10.5266 40.1232 10.4124C39.3614 10.2697 38.9696 10.1627 38.8825 10.0771C38.8172 10.0057 37.7288 8.72845 36.4591 7.23712C35.1894 5.74579 34.0792 4.45426 33.9776 4.36149C33.7237 4.13316 33.2884 4.14743 33.0925 4.39004C33.0061 4.49929 32.9533 4.63048 32.9401 4.76822C32.9401 4.88239 33.6149 6.1097 34.6887 7.95068C35.6537 9.59899 36.4373 10.9976 36.4373 11.0546C36.4373 11.1117 36.1181 11.8396 35.7408 12.6744C35.3054 13.6163 35.0442 14.2799 35.0442 14.4298C35.0442 14.708 35.1603 14.8222 36.2342 15.6499C36.626 15.9568 36.9162 16.2351 36.8872 16.2636C36.8582 16.2921 36.0238 17.0342 35.0442 17.8905L33.2666 19.4532L33.2448 19.1606C33.2376 18.9965 33.2738 16.6703 33.3246 13.9802C33.3899 11.0832 33.3972 9.04242 33.3609 8.96392C33.2884 8.82835 25.6989 0.401264 25.4232 0.15152C25.3624 0.0977881 25.2913 0.0566398 25.214 0.0305278C25.1367 0.00441573 25.0548 -0.00612555 24.9733 -0.000467661C24.8282 0.00666789 22.3032 0.277819 19.3719 0.606054V0.608195ZM23.631 1.76415C23.5077 1.99249 21.6067 5.28912 19.4154 9.0995L15.4248 16.021L12.5225 17.2626C10.9263 17.9476 9.41709 18.5969 9.17039 18.704L8.72054 18.8895L8.9237 18.3115C9.58397 16.4134 14.4308 2.57761 14.4671 2.49198C14.5033 2.40635 15.3813 2.28505 19.0309 1.87119C21.5123 1.5929 23.6165 1.36456 23.7036 1.35743C23.8632 1.35029 23.8632 1.35743 23.631 1.76415ZM31.7066 8.98533C31.7066 9.01387 29.2614 10.0771 17.7104 15.0291L17.3258 15.2004L17.5217 14.8579C17.6233 14.6724 19.3792 11.6184 21.418 8.07912L25.1257 1.64071L28.4125 5.29411C30.2264 7.2992 31.7066 8.96178 31.7066 8.98319V8.98533ZM11.4995 7.21571C11.1657 8.17188 10.2297 10.8548 9.41709 13.1739C8.60445 15.493 7.92967 17.4053 7.9079 17.4053C7.84985 17.4053 7.01545 12.3961 7.04447 12.2605C7.07349 12.1678 12.0437 5.48891 12.0872 5.48891C12.1017 5.48891 11.8332 6.26669 11.4995 7.21571ZM44.5565 7.64385C44.4839 7.83651 43.0981 11.3329 43.0473 11.4614C43.0255 11.5256 42.9167 11.4828 42.699 11.3401L42.3797 11.126L43.4826 9.30643C44.0848 8.30745 44.5855 7.48687 44.6 7.48687C44.597 7.54163 44.5821 7.59514 44.5565 7.64385ZM32.1202 12.282C32.0912 13.4308 32.0476 15.7284 32.0259 17.3839C32.0041 19.0393 31.9606 20.4022 31.9461 20.4022C31.9315 20.4022 30.894 20.6305 29.6315 20.9017L27.3459 21.4012L22.3975 18.9965C19.6767 17.6764 17.4274 16.5776 17.3984 16.5562C17.3548 16.5133 31.9533 10.2055 32.0984 10.1984C32.1347 10.1984 32.1492 11.0475 32.1202 12.282ZM39.8693 11.5969C40.428 11.704 40.9214 11.8253 40.9649 11.8681C41.0084 11.9109 41.1027 12.2677 41.1753 12.6601C41.2479 13.0526 41.3132 13.4451 41.3349 13.5235C41.364 13.6591 41.2043 13.7662 39.9273 14.4369C38.6866 15.0862 38.4834 15.1719 38.4399 15.0648C38.4109 15.0006 38.2875 14.2514 38.1642 13.4094C38.0408 12.5674 37.9248 11.7896 37.903 11.6897C37.8667 11.5113 37.8885 11.497 38.215 11.4328C38.3761 11.3928 38.5423 11.3759 38.7084 11.3829C38.7882 11.3971 39.3106 11.4899 39.8693 11.5969ZM42.4958 12.8528C42.4741 12.9099 42.4523 12.8885 42.4523 12.81C42.4523 12.7315 42.4668 12.6887 42.4886 12.7172C42.5011 12.7375 42.5084 12.7604 42.5097 12.7841C42.5109 12.8078 42.5062 12.8314 42.4958 12.8528ZM37.0105 14.0088L37.1194 14.7509L36.8001 14.5297C36.672 14.4467 36.5528 14.3511 36.4446 14.2442C36.4011 14.18 36.7856 13.2667 36.8509 13.2667C36.8799 13.2667 36.9525 13.602 37.0105 14.0088ZM42.9602 18.6397C43.2649 20.8446 43.5116 22.657 43.5044 22.6642C43.4826 22.6856 38.9551 16.549 38.9188 16.4491C38.8825 16.3635 42.2999 14.5225 42.3652 14.5939C42.387 14.6153 42.6555 16.4348 42.9602 18.6397ZM38.0046 17.3125C38.1352 17.498 38.1642 17.8691 38.3819 22.7569C38.614 28.18 38.6286 28.7865 38.4762 28.7865C38.4036 28.7865 33.4697 21.2085 33.4262 21.0301C33.4117 20.9731 37.7216 17.1341 37.8159 17.127C37.8449 17.1199 37.9247 17.2055 38.0046 17.3125ZM20.6126 19.4889C23.2029 20.7519 25.2998 21.8079 25.2708 21.8293C25.2418 21.8507 22.5209 22.4644 19.2341 23.1779L13.2626 24.4837L12.3411 23.5989C11.8405 23.1137 10.8319 22.1504 10.1064 21.4583L8.78584 20.2024L9.88871 19.7243C10.4982 19.4675 12.0509 18.7896 13.3497 18.2259C14.6484 17.6622 15.7513 17.2055 15.8021 17.1983C15.8529 17.1912 18.0224 18.2259 20.6126 19.4889ZM43.1126 24.2554C43.5044 24.7834 43.5915 24.9476 43.5189 25.0118C43.2649 25.233 39.891 27.759 39.8693 27.7376C39.8475 27.7162 39.775 26.1749 39.6951 24.2911C39.6153 22.4073 39.5283 20.5092 39.4992 20.0811L39.4557 19.2962L41.0302 21.4369C41.9009 22.6142 42.8369 23.8844 43.1126 24.2554ZM34.6742 25.2758C35.9512 27.2666 37.0323 28.9577 37.0758 29.0362C37.1556 29.1789 37.1194 29.1789 35.3417 29.1789H33.5278L30.9448 25.8181C29.5226 23.97 28.369 22.443 28.3835 22.4287C28.4488 22.3716 32.258 21.5653 32.2943 21.6081C32.3233 21.6295 33.3899 23.285 34.6742 25.2758ZM29.334 25.7539C30.5892 27.3808 31.5905 28.7223 31.5688 28.7365C31.5252 28.7508 15.9545 25.1973 15.9182 25.1616C15.8819 25.1259 26.6857 22.7712 26.8598 22.7784C27.0339 22.7855 27.375 23.1993 29.334 25.7539ZM13.6617 25.8966C13.8866 25.9465 14.0752 26.0108 14.068 26.0322C14.0607 26.0536 13.2046 26.7743 12.1452 27.6234L10.2152 29.1789H7.08801L3.95354 29.1718L8.52464 27.4735C11.0424 26.5317 13.132 25.7753 13.1683 25.7896C13.2046 25.8038 13.4295 25.8466 13.6617 25.8966ZM21.7518 27.7518C25.0096 28.5011 27.716 29.1219 27.7523 29.1361C27.7885 29.1504 24.3058 29.1718 20.0032 29.1718L12.1815 29.1789L13.8939 27.7875C14.8371 27.024 15.657 26.3961 15.715 26.3961C15.7731 26.3961 18.494 27.0097 21.7518 27.7518Z" fill="white"/>
</g>
<path d="M78.7604 3.18444C76.7215 3.34143 74.9004 4.14774 73.6524 5.44641C73.442 5.67475 73.2533 5.83887 73.2315 5.8246C73.1735 5.76038 73.5653 5.07537 73.7902 4.85416C73.957 4.70583 74.1367 4.57212 74.3272 4.45457C74.5013 4.35467 74.6754 4.19056 74.7262 4.08352C74.806 3.90513 74.7988 3.86946 74.6392 3.73388C74.407 3.53409 73.7322 3.41992 72.8397 3.41992C71.9473 3.41992 71.3451 3.52695 71.0476 3.75529L70.8081 3.9244L71.1201 4.28118C71.6861 4.92338 71.7586 5.05182 71.7586 5.42287C71.7586 5.71542 71.1347 8.99778 69.8722 15.3698C69.5384 17.0467 69.4296 17.4605 69.2772 17.6603C69.0885 17.8887 68.8636 17.8601 68.6967 17.5818C68.6314 17.4605 68.2759 15.9835 67.9131 14.2995C66.8828 9.54008 65.9033 5.11604 65.7727 4.68077C65.555 3.94581 65.243 3.63184 64.5392 3.45345C63.6613 3.23225 62.8051 3.36069 62.3843 3.76742C62.0142 4.13847 61.9707 4.41675 62.1666 5.34438C62.2516 5.73444 62.305 6.13051 62.3262 6.52888C62.3262 6.9356 61.6007 10.8245 60.6284 15.6481C60.2801 17.3464 60.2148 17.5818 60.0479 17.746L59.8665 17.9315L59.6851 17.7674C59.5703 17.6539 59.4812 17.5177 59.4239 17.3678C59.2208 16.7755 56.9425 6.10074 56.9062 5.58698C56.8627 4.95192 56.9062 4.82348 57.3416 4.28118C57.639 3.91727 57.6173 3.78883 57.2255 3.56049C57.0078 3.42491 56.8409 3.41778 54.4175 3.41778C51.9651 3.41778 51.8272 3.42491 51.6023 3.56049C51.489 3.62333 51.3921 3.71128 51.3193 3.81737C51.2468 4.00289 51.4499 4.25977 51.7982 4.42389C52.4947 4.73785 52.8575 5.15885 53.0897 5.90095C53.1405 6.08647 53.8225 9.12622 54.5989 12.6583C56.7393 22.4126 56.6958 22.2271 56.9643 22.6624C57.2037 23.0334 57.6318 23.1904 58.5678 23.2332C59.5183 23.276 59.8956 23.2047 60.2511 22.8978C60.5849 22.6053 60.759 22.17 60.9767 21.0426C62.8559 11.5095 62.8124 11.7022 63.0953 11.5951C63.4436 11.4667 63.6105 11.9091 64.1329 14.3352C65.4172 20.3005 65.8235 22.0701 66.0049 22.434C66.3096 23.0405 66.803 23.2546 67.8768 23.2546C69.016 23.2546 69.5311 22.9977 69.8431 22.2699C69.9592 21.9916 70.6195 18.7949 71.6498 13.4789C71.9908 11.695 72.2956 10.1823 72.3173 10.1252C72.3391 10.0681 72.4262 10.2608 72.5132 10.5533C72.9413 11.9733 73.7322 12.9794 75.1543 13.8928C75.9089 14.3708 76.7796 14.7776 78.2162 15.2985C81.6627 16.5543 82.1053 16.7541 82.7293 17.3464C83.2299 17.8316 83.404 18.2455 83.404 18.9733C83.404 19.487 83.375 19.644 83.2081 19.9937C82.5479 21.378 81.0024 22.1343 78.833 22.1415C77.8389 22.1415 77.3818 22.0772 76.4386 21.7775C74.8786 21.2852 73.8555 20.4717 73.2461 19.2373C72.9921 18.7164 72.8397 18.4952 72.6438 18.3668C72.4117 18.2098 72.3754 18.2026 72.194 18.2954C71.7441 18.5237 71.5845 19.644 71.7586 21.3566C71.8385 22.1629 71.8747 22.3056 72.0198 22.4483C72.252 22.6766 72.3899 22.6552 72.8107 22.327C73.3259 21.9274 73.5218 21.9417 74.2981 22.434C75.0745 22.9264 75.7783 23.1975 76.8014 23.3973C78.4266 23.7041 80.7557 23.54 82.2649 23.012C82.5696 22.905 82.5914 22.905 82.8454 23.0762C83.0993 23.2475 83.1501 23.2546 84.4053 23.2546C85.3994 23.2546 85.7549 23.2332 85.958 23.1476C86.4079 22.9621 86.466 22.6838 86.1249 22.3627C85.8129 22.063 85.6896 21.7561 85.6896 21.2495C85.6896 20.8571 85.7331 20.7144 86.0016 20.1935C86.4514 19.3158 86.2193 19.3657 89.7891 19.3729C91.4289 19.3729 92.8872 19.4014 93.0251 19.43C93.3879 19.4942 93.7942 19.908 93.9248 20.3576C94.0339 20.7042 94.0612 21.0708 94.0046 21.4293C93.9481 21.7879 93.8091 22.1291 93.5983 22.4269C93.3734 22.7551 93.3734 22.7694 93.504 22.9121C93.8377 23.276 93.8958 23.2831 96.5732 23.2831C99.0183 23.2831 99.0836 23.276 99.3884 23.119C99.5625 23.0334 99.7149 22.9192 99.7439 22.855C99.8092 22.6766 99.5552 22.3983 99.1489 22.2128C98.4524 21.8846 98.0388 21.3566 97.7776 20.4717C97.7196 20.2577 97.1609 18.3596 96.5441 16.2618C95.9274 14.1639 94.9116 10.7032 94.2949 8.56964C93.6781 6.43611 93.1194 4.59514 93.0686 4.4667C92.6623 3.52481 91.8279 3.26793 89.5569 3.39637C88.2073 3.46773 87.9824 3.53908 87.8953 3.88872C87.8591 4.01716 87.8953 4.1242 88.0042 4.25977C88.396 4.74499 88.5919 5.09463 88.5919 5.34438C88.5919 5.63693 88.4105 6.31481 86.9666 11.3311C86.3861 13.3505 85.9073 15.0487 85.9073 15.0987C85.9073 15.2699 85.7984 15.1914 85.5517 14.8275C85.0076 14.0426 83.9265 13.272 82.5043 12.6512C82.1198 12.4871 80.8428 12.009 79.6674 11.588C76.6635 10.5176 75.9524 10.0895 75.4083 8.99778C75.1471 8.48402 75.1325 8.4198 75.1325 7.7776C75.1325 7.15681 75.1543 7.04977 75.3647 6.6145C75.684 5.94376 76.1266 5.53704 76.932 5.16599C77.8462 4.74499 78.3758 4.62368 79.5005 4.58087C81.104 4.51665 82.2867 4.7664 83.2154 5.37292C84.2892 6.07934 84.6956 6.75721 85.2905 8.8622C85.5372 9.73274 86.0741 9.81123 86.3136 9.00491C86.5167 8.32704 86.5458 7.54213 86.4369 5.9509C86.3571 4.72358 86.3136 4.41675 86.2047 4.27404C86.0234 4.0243 85.7694 4.01716 85.276 4.25977C85.0438 4.37394 84.8044 4.45243 84.7464 4.43816C84.6883 4.42389 84.282 4.23123 83.8394 4.0243C83.3777 3.80214 82.8999 3.61373 82.41 3.46059C81.4523 3.18944 80.0229 3.08241 78.7604 3.1823V3.18444ZM90.0575 7.60849C90.2099 7.7512 90.3332 8.01521 90.5146 8.59319C90.8266 9.58503 92.8582 16.6492 92.9163 16.9561C93.0033 17.3913 92.9018 17.6482 92.568 17.8337L92.2705 17.9978L90.0503 17.9479C87.743 17.8908 87.119 17.8409 86.9811 17.7053C86.8142 17.5412 86.8287 16.8918 87.0174 16.1926C87.4092 14.7654 89.3247 8.15792 89.3973 7.96526C89.4916 7.7512 89.7383 7.41583 89.8108 7.41583C89.9033 7.46625 89.9866 7.53134 90.0575 7.60849Z" fill="white"/>
<mask id="mask1_66_703" style="mask-type:luminance" maskUnits="userSpaceOnUse" x="0" y="0" width="124" height="31">
<path d="M123.999 0H0.0078125V30.3261H123.999V0Z" fill="white"/>
</mask>
<g mask="url(#mask1_66_703)">
<path d="M76.8085 26.0396C76.2207 26.2251 75.9378 26.9315 76.2135 27.5595C76.3368 27.8592 76.4602 27.9591 77.2003 28.3586C77.534 28.537 77.8388 28.7297 77.8678 28.7725C77.9117 28.9085 77.9314 29.0509 77.9258 29.1935C77.9258 29.4647 77.8896 29.5503 77.7372 29.6716C77.2873 30.0212 76.6924 29.7429 76.6924 29.1792V28.8938H76.0176L76.0684 29.2649C76.1554 29.957 76.4965 30.2139 77.3091 30.2139C78.1362 30.2139 78.4845 29.9427 78.5571 29.2435C78.6224 28.6013 78.412 28.3158 77.476 27.8235C77.1712 27.6665 76.8955 27.4952 76.852 27.4453C76.6416 27.1813 76.7214 26.6033 76.9826 26.4677C77.094 26.4168 77.2163 26.3935 77.339 26.3997C77.4617 26.4059 77.5809 26.4415 77.6864 26.5034C77.788 26.5748 77.8605 26.7246 77.8968 26.9315C77.9403 27.2455 77.9476 27.2526 78.2233 27.2526C78.499 27.2526 78.5063 27.2455 78.5063 26.9958C78.5063 26.639 78.3104 26.2679 78.0492 26.1324C77.788 25.9968 77.0987 25.9468 76.8085 26.0396Z" fill="white"/>
<path d="M117.722 26.0683C117.113 26.2895 117.011 26.6249 117.047 28.2803C117.062 29.2793 117.091 29.5433 117.2 29.7288C117.526 30.3282 118.731 30.421 119.246 29.8929C119.42 29.7146 119.464 29.6004 119.485 29.2507L119.514 28.8226H119.217C118.927 28.8226 118.919 28.8297 118.919 29.0724C118.919 29.372 118.76 29.7146 118.593 29.7788C118.471 29.8262 118.339 29.8386 118.21 29.8146C118.082 29.7906 117.963 29.7312 117.867 29.6432C117.686 29.4719 117.686 29.4577 117.686 28.1091C117.686 26.7604 117.686 26.7462 117.867 26.5749C118.092 26.3537 118.491 26.3323 118.702 26.5392C118.803 26.6626 118.868 26.8105 118.89 26.9674C118.934 27.2457 118.948 27.2528 119.217 27.2528C119.485 27.2528 119.5 27.2457 119.5 26.9816C119.492 26.8169 119.447 26.656 119.366 26.5113C119.286 26.3666 119.173 26.242 119.036 26.1468C118.782 25.9827 118.078 25.9398 117.722 26.0683Z" fill="white"/>
</g>
<path d="M53.728 26.2681C53.7426 26.3608 53.8949 27.1886 54.0545 28.109C54.2142 29.0295 54.3665 29.8572 54.3811 29.9429C54.4173 30.0856 54.4681 30.107 54.8091 30.107H55.1937L55.4767 28.4658C55.6435 27.4954 55.7814 26.8746 55.8104 26.9459C55.8395 27.0173 55.9628 27.7023 56.0861 28.4658C56.2095 29.2293 56.3328 29.9143 56.3473 29.9786C56.3764 30.0784 56.4634 30.107 56.7682 30.107H57.1527L57.4938 28.159C57.6751 27.0958 57.8275 26.1967 57.8275 26.161C57.8275 26.1254 57.6969 26.1111 57.5373 26.1111C57.1963 26.1111 57.2543 25.947 56.9568 27.8165C56.8335 28.58 56.7246 29.215 56.7174 29.2222C56.7101 29.2293 56.5868 28.5943 56.4562 27.8022C56.3256 27.0102 56.2022 26.3037 56.1877 26.2324C56.1587 26.1396 56.0716 26.1111 55.7669 26.1111H55.3896L55.1429 27.5525C55.0123 28.3516 54.8817 29.0438 54.8527 29.0937C54.8237 29.1437 54.7656 28.9368 54.7221 28.6299C54.6785 28.3231 54.5624 27.631 54.4826 27.0887L54.323 26.1111H54.011C53.7135 26.1111 53.6918 26.1254 53.728 26.2681Z" fill="white"/>
<path d="M59.3516 28.1093V30.1072H60.0046V28.252H61.238V30.1072H61.8185V26.1113H61.238V27.8239H60.0046V26.1113H59.3516V28.1093Z" fill="white"/>
<path d="M63.7051 28.1093V30.1072H64.2855V26.1113H63.7051V28.1093Z" fill="white"/>
<path d="M65.8086 26.3254V26.5395H66.8969V30.1072H67.4774V26.5395H68.5658V26.1113H65.8086V26.3254Z" fill="white"/>
<path d="M70.0898 28.1093V30.1072H72.194V29.6791H70.7429V28.252H72.1214V27.8239H70.7429V26.5395H72.194V26.1113H70.0898V28.1093Z" fill="white"/>
<path d="M80.1758 28.1096V30.1075H80.8288L80.836 28.4806V26.8609L81.3294 28.4664L81.8156 30.0719L82.3017 30.0933L82.7878 30.1147V26.1116H82.2074V27.7671C82.2074 28.6733 82.1856 29.4011 82.1638 29.3726C82.1421 29.344 81.9026 28.6162 81.6342 27.7385L81.1553 26.1473L80.6619 26.1259L80.1758 26.1045V28.1096Z" fill="white"/>
<path d="M85.4078 26.3397C85.3062 26.675 84.3848 30.0073 84.3848 30.0644C84.3848 30.0858 84.5299 30.1072 84.704 30.1072C85.0015 30.1072 85.0233 30.093 85.0668 29.8789C85.0886 29.7505 85.1466 29.5293 85.1901 29.3794L85.2627 29.1083H86.4599L86.5905 29.6077L86.7211 30.1072H87.3451L87.1347 29.3366C87.0186 28.9156 86.7719 28.0165 86.5832 27.3386L86.2495 26.1113H85.8649C85.5021 26.1113 85.4804 26.1185 85.4078 26.3397ZM86.293 28.4803L86.3438 28.6801H85.8722C85.582 28.6801 85.4006 28.6516 85.4006 28.6016C85.4006 28.5303 85.611 27.6811 85.7779 27.0746L85.8577 26.7892L86.0536 27.5384C86.1552 27.9523 86.2713 28.3733 86.293 28.4803Z" fill="white"/>
<path d="M88.9551 28.1093V30.1072H89.5355V26.1113H88.9551V28.1093Z" fill="white"/>
<path d="M91.2773 28.1093V30.1072H93.2364V29.6791H91.9304V26.1113H91.2773V28.1093Z" fill="white"/>
<path d="M97.8863 26.3397C97.7848 26.675 96.8633 30.0073 96.8633 30.0644C96.8633 30.0858 97.0084 30.1072 97.1825 30.1072C97.48 30.1072 97.5018 30.093 97.5453 29.8789C97.5671 29.7505 97.6251 29.5293 97.6687 29.3794L97.7412 29.1083H98.9384L99.069 29.6077L99.1996 30.1072H99.8236L99.6132 29.3366C99.4971 28.9156 99.2504 28.0165 99.0618 27.3386L98.728 26.1113H98.3434C97.9807 26.1113 97.9589 26.1185 97.8863 26.3397ZM98.7715 28.4803L98.8223 28.6801H98.3507C98.0605 28.6801 97.8791 28.6516 97.8791 28.6016C97.8791 28.5303 98.0895 27.6811 98.2564 27.0746L98.3362 26.7892L98.5321 27.5384C98.6337 27.9523 98.7498 28.3733 98.7715 28.4803Z" fill="white"/>
<path d="M101.434 28.1096V30.1075H102.014L102.029 28.4592L102.05 26.818L102.478 28.4664L102.907 30.1147L103.233 30.0933L103.56 30.0719L103.973 28.502C104.198 27.6386 104.401 26.8823 104.423 26.8252C104.445 26.7681 104.474 27.4817 104.474 28.4093L104.481 30.1075H104.989V26.1116H104.06L103.726 27.446C103.538 28.1881 103.349 28.9159 103.306 29.0729C103.226 29.3512 103.218 29.3226 102.812 27.7528L102.406 26.1473L101.92 26.1259L101.434 26.1045V28.1096Z" fill="white"/>
<path d="M106.805 28.1093V30.1072H108.909V29.6791H107.458V28.252H108.836V27.8239H107.458V26.5395H108.909V26.1113H106.805V28.1093Z" fill="white"/>
<path d="M110.504 28.1021V30.1072H111.157V28.3946H111.549C112.18 28.3946 112.267 28.5088 112.303 29.3865L112.332 30.1072H112.935L112.906 29.415C112.877 28.6372 112.775 28.3589 112.477 28.2448C112.289 28.1663 112.289 28.1663 112.434 28.1092C112.567 28.0393 112.683 27.9419 112.775 27.8238C112.927 27.6454 112.971 27.5241 112.971 27.2387C112.971 26.4038 112.644 26.1755 111.36 26.1255L110.504 26.0898V28.1021ZM112.165 26.675C112.456 26.9604 112.412 27.731 112.1 27.8951C112.028 27.938 111.781 27.9665 111.563 27.9665H111.157V26.5394H111.592C111.926 26.5394 112.064 26.5751 112.165 26.675Z" fill="white"/>
<path d="M114.641 28.1093V30.1072H115.221V26.1113H114.641V28.1093Z" fill="white"/>
<path d="M122.048 26.3397C121.947 26.675 121.025 30.0073 121.025 30.0644C121.025 30.0858 121.171 30.1072 121.345 30.1072C121.642 30.1072 121.664 30.093 121.707 29.8789C121.729 29.7505 121.787 29.5293 121.831 29.3794L121.903 29.1083H123.101L123.231 29.6077L123.362 30.1072H123.986L123.775 29.3366C123.659 28.9156 123.413 28.0165 123.224 27.3386L122.89 26.1113H122.506C122.143 26.1113 122.121 26.1185 122.048 26.3397ZM122.934 28.4803L122.984 28.6801H122.513C122.223 28.6801 122.041 28.6516 122.041 28.6016C122.041 28.5303 122.252 27.6811 122.418 27.0746L122.498 26.7892L122.694 27.5384C122.796 27.9523 122.912 28.3733 122.934 28.4803Z" fill="white"/>
</g>
<defs>
<clipPath id="clip0_66_703">
<rect width="124" height="30.3261" fill="white"/>
</clipPath>
</defs>
</svg>
